<svg id="baterry" enable-background="new 0 0 300 300" height="512" viewBox="0 0 300 300" width="512" xmlns="http://www.w3.org/2000/svg" xmlns:xlink="http://www.w3.org/1999/xlink"><linearGradient id="SVGID_1_" gradientUnits="userSpaceOnUse" x1="63.171" x2="246.722" y1="287.819" y2="104.269"><stop offset="0" stop-color="#107eff"/><stop offset="1" stop-color="#8f16ff"/></linearGradient><g><path d="m113.223 156.512c0 2.209-1.789 4-4 4h-7.223v8.479c0 2.209-1.789 4-4 4s-4-1.791-4-4v-8.479h-8.359c-2.211 0-4-1.791-4-4s1.789-4 4-4h8.359v-7.521c0-2.209 1.789-4 4-4s4 1.791 4 4v7.521h7.223c2.211 0 4 1.791 4 4zm100.777-3.522h-24c-2.211 0-4 1.791-4 4s1.789 4 4 4h24c2.211 0 4-1.791 4-4s-1.789-4-4-4zm-75.555-74.164c-.688-1.33-.574-2.932.293-4.152l29.805-41.98c1.145-1.609 3.289-2.146 5.062-1.256 1.766.891 2.617 2.936 2 4.816l-7.676 23.471 13.285-2.656c1.664-.332 3.336.41 4.207 1.85s.75 3.273-.309 4.584l-37.254 46.176c-.785.971-1.941 1.488-3.117 1.488-.711 0-1.43-.189-2.074-.582-1.715-1.041-2.391-3.191-1.586-5.027l10.793-24.566h-9.874c-1.496-.002-2.867-.837-3.555-2.166zm119.555 162.164v24c0 2.209-1.789 4-4 4h-208c-2.211 0-4-1.791-4-4v-24c0-2.209 1.789-4 4-4h8.059v-8-104c0-2.209 1.789-4 4-4h15.941v-16c0-2.209 1.789-4 4-4h36c2.211 0 4 1.791 4 4v16h60v-16c0-2.209 1.789-4 4-4h36c2.211 0 4 1.791 4 4v16h20c2.211 0 4 1.791 4 4v104 8h8c2.211 0 4 1.791 4 4zm-72-120h28v-12h-28zm-123.941 104h175.941v-96h-175.941zm-12.059 36h4.059v-16h-4.059zm12.059 0h175.941v-28h-175.941zm187.941-16h-4v16h4z" fill="url(#SVGID_1_)"/></g></svg>