<svg id="Layer_1" enable-background="new 0 0 24 24" viewBox="0 0 24 24" xmlns="http://www.w3.org/2000/svg"><g><path d="m12 14.6h-9c-.9 0-1.6-.7-1.6-1.6v-6c0-.9.7-1.6 1.6-1.6h9c.9 0 1.6.7 1.6 1.6v6c0 .9-.7 1.6-1.6 1.6zm-9-8c-.2 0-.4.2-.4.4v6c0 .2.2.4.4.4h9c.2 0 .4-.2.4-.4v-6c0-.2-.2-.4-.4-.4z" fill="rgb(0,0,0)"/></g><g><path d="m21 14.6h-4c-.9 0-1.6-.7-1.6-1.6v-10c0-.9.7-1.6 1.6-1.6h4c.9 0 1.6.7 1.6 1.6v10c0 .9-.7 1.6-1.6 1.6zm-4-12c-.2 0-.4.2-.4.4v10c0 .2.2.4.4.4h4c.2 0 .4-.2.4-.4v-10c0-.2-.2-.4-.4-.4z" fill="rgb(0,0,0)"/></g><g><path d="m20 22.6h-11c-.9 0-1.6-.7-1.6-1.6v-3c0-.9.7-1.6 1.6-1.6h11c.9 0 1.6.7 1.6 1.6v3c0 .9-.7 1.6-1.6 1.6zm-11-5c-.2 0-.4.2-.4.4v3c0 .2.2.4.4.4h11c.2 0 .4-.2.4-.4v-3c0-.2-.2-.4-.4-.4z" fill="rgb(0,0,0)"/></g></svg>