<svg id="electric-solar" enable-background="new 0 0 300 300" height="512" viewBox="0 0 300 300" width="512" xmlns="http://www.w3.org/2000/svg" xmlns:xlink="http://www.w3.org/1999/xlink"><linearGradient id="SVGID_1_" gradientUnits="userSpaceOnUse" x1="50.906" x2="240.506" y1="281.926" y2="92.325"><stop offset="0" stop-color="#107eff"/><stop offset="1" stop-color="#8f16ff"/></linearGradient><g><path d="m32.206 150.096c0-2.502 2.028-4.529 4.53-4.529s4.53 2.027 4.53 4.529c0 2.501-2.028 4.529-4.53 4.529s-4.53-2.027-4.53-4.529zm232.529 47.471c-2.501 0-4.53 2.027-4.53 4.529 0 2.501 2.028 4.529 4.53 4.529s4.53-2.028 4.53-4.529c0-2.502-2.028-4.529-4.53-4.529zm-19.264-42.941c2.907 0 5.265-2.357 5.265-5.265s-2.357-5.265-5.265-5.265-5.265 2.357-5.265 5.265 2.357 5.265 5.265 5.265zm-153.162-76.795c-2.016-3.492-2.016-7.66 0-11.156 2.02-3.492 5.629-5.578 9.664-5.578h22.164c.98 0 1.918-.465 2.516-1.246l11.211-14.711c2.125-2.789 5.359-4.391 8.871-4.391s6.746 1.602 8.871 4.391l11.211 14.711c.598.781 1.535 1.246 2.516 1.246h22.164c4.035 0 7.645 2.086 9.664 5.578 2.016 3.496 2.016 7.664 0 11.156l-10.789 18.688c-.562.973-.562 2.184 0 3.156l10.789 18.688c2.016 3.492 2.016 7.66 0 11.156-2.02 3.492-5.629 5.578-9.664 5.578h-22.164c-.98 0-1.918.465-2.516 1.246l-11.211 14.711c-2.125 2.789-5.359 4.391-8.871 4.391s-6.746-1.602-8.871-4.391l-11.211-14.711c-.598-.781-1.535-1.246-2.516-1.246h-22.164c-4.035 0-7.645-2.086-9.664-5.578-2.016-3.496-2.016-7.664 0-11.156l10.789-18.688c.562-.973.562-2.184 0-3.156zm6.93-4 10.789 18.688c1.984 3.441 1.984 7.715 0 11.156l-10.789 18.688c-.824 1.422-.273 2.68 0 3.156.273.473 1.09 1.578 2.734 1.578h22.164c3.461 0 6.777 1.645 8.875 4.395l11.211 14.711c1.211 1.586 3.816 1.586 5.02 0l11.215-14.711c2.098-2.75 5.414-4.395 8.875-4.395h22.164c1.645 0 2.461-1.105 2.734-1.578.273-.477.824-1.734 0-3.156l-10.789-18.688c-1.984-3.441-1.984-7.715 0-11.156l10.789-18.688c.824-1.422.273-2.68 0-3.156-.273-.473-1.09-1.578-2.734-1.578h-22.164c-3.461 0-6.777-1.645-8.875-4.395l-11.211-14.711s0 0-.004 0c-1.203-1.586-3.812-1.586-5.016 0l-11.215 14.711c-2.098 2.75-5.414 4.395-8.875 4.395h-22.164c-1.645 0-2.461 1.105-2.734 1.578-.273.476-.824 1.734 0 3.156zm15.496 24.265c0-17.645 14.355-32 32-32s32 14.355 32 32-14.355 32-32 32-32-14.355-32-32zm36 102h-4.934l8.363-13.941c1.137-1.895.523-4.352-1.371-5.488-1.895-1.141-4.355-.523-5.488 1.371l-12 20c-.742 1.234-.762 2.773-.051 4.031.711 1.254 2.039 2.027 3.48 2.027h5.527l-5.105 10.211c-.988 1.977-.188 4.379 1.789 5.367.574.285 1.184.422 1.785.422 1.469 0 2.879-.809 3.582-2.211l8-16c.621-1.238.555-2.711-.176-3.891s-2.014-1.898-3.401-1.898zm108 60c0 2.211-1.789 4-4 4h-56c-2.211 0-4-1.789-4-4v-24h-100v20h88c2.211 0 4 1.789 4 4s-1.789 4-4 4h-148c-2.211 0-4-1.789-4-4s1.789-4 4-4h40v-20h-19.922c-3.141 0-6.027-1.582-7.715-4.234s-1.898-5.934-.57-8.781l27.312-49.934c1.383-2.98 4.637-5.051 8.172-5.051h125.445c3.535 0 6.789 2.07 8.289 5.273l27.078 49.488c1.445 3.07 1.234 6.352-.453 9.004s-4.574 4.234-7.715 4.234h-19.922v20h40c2.212.001 4.001 1.79 4.001 4.001zm-203.922-32h179.844c.547 0 .84-.332.965-.531.125-.195.301-.602.07-1.094l-27.078-49.488c-.305-.625-.711-.887-1.156-.887h-125.445c-.445 0-.852.262-1.039.664l-27.312 49.934c-.113.27.062.676.188.871.124.199.416.531.963.531zm31.922 8h-4v20h4zm116 20h4v-20h-4zm-4-156c0 2.211 1.789 4 4 4h12c2.211 0 4-1.789 4-4s-1.789-4-4-4h-12c-2.211 0-4 1.789-4 4zm-120 4h12c2.211 0 4-1.789 4-4s-1.789-4-4-4h-12c-2.211 0-4 1.789-4 4s1.789 4 4 4zm36.672-49.781c.77 1.156 2.039 1.781 3.332 1.781.762 0 1.531-.219 2.215-.672 1.84-1.227 2.336-3.707 1.109-5.547l-8-12c-1.227-1.84-3.707-2.332-5.547-1.109-1.84 1.227-2.336 3.707-1.109 5.547zm57.109 86.453c-1.84 1.227-2.336 3.707-1.109 5.547l8 12c.77 1.156 2.039 1.781 3.332 1.781.762 0 1.531-.219 2.215-.672 1.84-1.227 2.336-3.707 1.109-5.547l-8-12c-1.222-1.839-3.707-2.331-5.547-1.109zm-57.812 1.004-7.137 12.535c-1.094 1.922-.422 4.363 1.496 5.457.625.355 1.305.523 1.977.523 1.391 0 2.742-.727 3.48-2.02l7.137-12.535c1.094-1.922.422-4.363-1.496-5.457-1.926-1.093-4.363-.421-5.457 1.497zm58.605-85.855c.625.355 1.305.523 1.977.523 1.391 0 2.742-.727 3.48-2.02l7.137-12.535c1.094-1.922.422-4.363-1.496-5.457-1.922-1.094-4.363-.422-5.457 1.496l-7.137 12.535c-1.093 1.923-.422 4.364 1.496 5.458z" fill="url(#SVGID_1_)"/></g></svg>