<svg id="electric-panels" enable-background="new 0 0 300 300" height="512" viewBox="0 0 300 300" width="512" xmlns="http://www.w3.org/2000/svg" xmlns:xlink="http://www.w3.org/1999/xlink"><linearGradient id="SVGID_1_" gradientUnits="userSpaceOnUse" x1="53.345" x2="258.658" y1="277.002" y2="71.689"><stop offset="0" stop-color="#107eff"/><stop offset="1" stop-color="#8f16ff"/></linearGradient><g><path d="m241.516 82.828 2.828-2.828-2.828-2.828c-1.562-1.562-1.562-4.094 0-5.656s4.094-1.562 5.656 0l2.828 2.828 2.828-2.828c1.562-1.562 4.094-1.562 5.656 0s1.562 4.094 0 5.656l-2.828 2.828 2.828 2.828c1.562 1.562 1.562 4.094 0 5.656-.781.781-1.805 1.172-2.828 1.172s-2.047-.391-2.828-1.172l-2.828-2.828-2.828 2.828c-.781.781-1.805 1.172-2.828 1.172s-2.047-.391-2.828-1.172c-1.563-1.562-1.563-4.093 0-5.656zm-19.516-18.828c2.209 0 4-1.791 4-4s-1.791-4-4-4-4 1.791-4 4 1.791 4 4 4zm-60 20c2.209 0 4-1.791 4-4s-1.791-4-4-4-4 1.791-4 4 1.791 4 4 4zm-80-24c0-6.617 5.383-12 12-12s12 5.383 12 12-5.383 12-12 12-12-5.383-12-12zm8 0c0 2.205 1.795 4 4 4s4-1.795 4-4-1.795-4-4-4-4 1.795-4 4zm92 144v20c0 2.209-1.791 4-4 4h-44c-2.209 0-4-1.791-4-4v-20c0-2.209 1.791-4 4-4h44c2.209 0 4 1.791 4 4zm-8 4h-36v12h36zm72-4v20c0 2.209-1.791 4-4 4h-44c-2.209 0-4-1.791-4-4v-20c0-2.209 1.791-4 4-4h44c2.209 0 4 1.791 4 4zm-8 4h-36v12h36zm-140-52c0 6.617-5.383 12-12 12s-12-5.383-12-12 5.383-12 12-12 12 5.383 12 12zm176 92c0 2.209-1.791 4-4 4h-240c-2.209 0-4-1.791-4-4s1.791-4 4-4h20v-56h-4c-1.387 0-2.674-.719-3.402-1.896-.729-1.18-.795-2.652-.176-3.893l40-80c.678-1.356 2.062-2.211 3.578-2.211h140c1.516 0 2.9.855 3.578 2.211l40 80c.619 1.24.553 2.713-.176 3.893-.728 1.177-2.015 1.896-3.402 1.896h-4v56h8c2.209 0 4 1.791 4 4zm-172-44v40h12v-56h-56v56h12v-40c0-2.209 1.791-4 4-4h24c2.209 0 4 1.791 4 4zm-9.527-96 8 16h31.055l-8-16zm40 0 8 16h27.055l-8-16zm36 0 8 16h23.055l-8-16zm67.054 24h-23.055l10 20h23.055zm-32 0h-23.055l10 20h23.055zm-8 48-10-20h-27.055l10 20zm-14-28-10-20h-27.055l10 20zm46 28-10-20h-23.055l10 20zm-123.054-48 10 20h31.055l-10-20zm14 28 10 20h31.055l-10-20zm3.527 84h132v-56h-132zm137.527-64-10-20h-23.055l10 20zm-36-72h-23.055l8 16h23.055zm-171.054 72h67.055l-33.528-67.055z" fill="url(#SVGID_1_)"/></g></svg>