<?xml version="1.0" encoding="utf-8"?>
<!-- Generator: Adobe Illustrator 26.5.0, SVG Export Plug-In . SVG Version: 6.00 Build 0)  -->
<svg version="1.1"
	 id="svg2" xmlns:dc="http://purl.org/dc/elements/1.1/" xmlns:svg="http://www.w3.org/2000/svg" xmlns:cc="http://creativecommons.org/ns#" xmlns:rdf="http://www.w3.org/1999/02/22-rdf-syntax-ns#"
	 xmlns="http://www.w3.org/2000/svg" xmlns:xlink="http://www.w3.org/1999/xlink" x="0px" y="0px" viewBox="0 0 1037.2 382"
	 style="enable-background:new 0 0 1037.2 382;" xml:space="preserve">
<style type="text/css">
	.st0{fill-rule:evenodd;clip-rule:evenodd;fill:#D7B56D;}
</style>
<g id="g10" transform="matrix(1.3333333,0,0,-1.3333333,0,1122.5197)">
	<g id="g12">
		<path id="path14" class="st0" d="M747.8,785.2c-4.5,1.5-15.3,1.1-20.8-0.1c-6.8-1.5-16.1-5.5-21.1-10.5c-0.8-0.8-1.1-2.5-1.6-3.6
			c-0.5-1.3-1-2.3-1.7-3.5c-1.6-2.7-3.3-4.8-5.6-7l5.5-1.7c1.1-0.4,0.6-0.4,1.8,0.3c5,2.8,9.4,3.9,14.7,5c4,0.8,8.8,0.8,12.8,0.6
			c0.6,0,1.4-0.2,1.8-0.2c1.7,0,6,4.4,7.3,6c2.1,2.4,3.5,4.7,4.7,7.3C746.8,780,747.9,783.2,747.8,785.2z M773.6,839.7
			c-0.6,0-2.1-0.3-2.8-0.4c-1-0.2-1.9-0.4-2.9-0.6c-6.3-1.6-11.7-3.6-17.3-7.6c-4.2-2.9-7.8-6.4-10.9-10.5c-1.4-1.8-2.6-3.7-3.7-5.7
			l-2.5-5.6c1.2-0.1,5.6,0.5,8.3,0.5c4.9-0.1,5-0.8,4.8-3.9l0.1-1c5.1,4,10.8,6.7,16.9,8.5c1.3,0.4,1.6,0.2,2.7,1.6
			c0.7,0.9,1.4,1.8,2.1,2.7c2.4,3.4,4.5,7.8,5.1,11.1C773.9,831.4,774.6,837,773.6,839.7L773.6,839.7z M744.4,807.2
			c-2,0.8-10,0-12.9-0.5c-9.5-1.6-18.6-6.2-25.8-13.4c-5.4-5.4-5.7-7.3-9.2-12.7c3.1-1.2,7.7,0.5,9.7-3c3.3,1.3,9.5,8.4,24.7,10.3
			c2.6,0.3,5.3,0,6.3,1C741.7,793.6,744.1,801.6,744.4,807.2L744.4,807.2z M711.6,694.2c-2.5,2.2-9.1,5.4-11.9,6.3
			c-2.2,0.8-3.9,1.3-5.9,1.8c-1.8,0.4-10.4,2.2-12.1,1c-5.3-3.5-5.1-4.3-12.1-6.6l-6.2-1.6c2.3-1.9,4.1-3.3,6.2-5.5
			c1-1.1,1.6-2.2,3-2.8c3.4-1.5,6-2.8,9.1-5.4c1.6-1.3,1.5-1.1,3.1-1c5.3,0.3,9.9,0.7,15.6,3.6C703.5,685.6,710.5,690.7,711.6,694.2
			L711.6,694.2z M662.7,715.5c-3,3.4-14.2,8.4-19.2,9.5c-0.8,0.2-1.4,0.3-2.3,0.5c-2.7,0.7-4.7,0.7-7.3,0.8
			c-2.6,0.2-6.9,0.1-9.7-0.6c2.8-2.1,5.3-2.5-0.8-8.2c-4.1-3.8-5.9-3.7-9.2-5.5c1-0.7,2-1.2,3.1-1.9c1.7-1.2,1.5-0.8,3-0.9
			c1.1-0.1,2-0.3,3.1-0.4c1.1-0.1,1.8-0.4,3-0.6c1.8-0.4,4.1-1.2,6.1-2.1c5.2-2.3,4.4-4.1,12.2-2.2
			C651.8,705.5,658.4,709.1,662.7,715.5L662.7,715.5z M777.7,813c-1.6,0.1-3.9-0.1-5.6-0.3c-7.9-0.9-15.8-3.7-22.5-8.4
			c-3-2.1-3.6-2.3-4.2-4.7c-0.9-3.6-3.1-7.7-5.8-11.1c0.6-0.3,4.5-0.4,6.3-0.7c3.4-0.6,4.3-0.4,4.1-3.7c4.4,1,4.1,1.6,10.4,2.4
			c1.4,0.2,4.5,0.3,5.2,0.7c4.3,2.8,9.4,10.6,10.9,15.5C777.4,805.4,778.3,811.1,777.7,813L777.7,813z M742.5,760.5
			c-2.9,1.1-10.8,2.2-14.2,2.2c-7.1,0.1-14.5-1.6-21.4-4.8c-3.2-1.5-1-0.2-3.7-6c-3-6.2-6.5-8.8-12-12.8c1.5-0.9,2.1-0.1,3.7,0.6
			c10.5,4.4,21.3,5,32.3,2.3c0.9-0.2,0.9-0.4,1.8,0.1c0.6,0.4,1.3,0.8,1.8,1.2c3.8,2.7,7,6.1,9.2,10.1
			C740.5,754.7,742.5,759,742.5,760.5L742.5,760.5z M631.2,741.3c1.3,0.5,3.9,1.1,5.2,1.4c1.9,0.3,3.5,0.5,5.4,0.7
			c3.8,0.4,6.6,0.3,10.5-0.1c2.4-0.2,1.9-0.8,5.2,2.7c1.5,1.6,2.9,3.4,3.9,5.2c1.7,2.9,3.6,8,3.6,10.5c-12.4,2.4-29.9,0.9-43.9-12.8
			c-1-0.9-2.3-2.2-2.9-3.3c1,0.2,5-0.7,6.5-1.1C626.6,743.9,629.9,743.4,631.2,741.3z M777.5,783.8c-2,0.7-9.1,1.2-11.5,1.1
			c-4.8-0.2-9.5-0.9-14.4-2.6c-1.1-0.4-2.1-0.4-2.6-1.6c-4.2-12.3-8.4-12.4-11.7-16.7c0.8-0.1,3.5-0.7,4.6-1
			c2.5-0.7,3.1-1.4,2.5-3.6l0.9,0c0.2,0,0.4,0.1,0.6,0.1c3.1,0.6,5.7,0.8,8.9,0.9c3.6,0.1,3-0.6,5.2,0.6c1.7,0.9,3.4,1.9,5.1,3.1
			c6.2,4.5,11,11.1,12.3,18.6c0,0.2,0.1,0.4,0.1,0.6c0,0,0,0.1,0,0.2c0,0,0,0.1,0,0.2L777.5,783.8L777.5,783.8z M702.5,756.5
			c-2.3,1.3-10.2,2.7-12.2,2.8c-8,0.6-17-0.8-24.5-5c-1.1-0.6-2.6-4.3-3.5-5.7c-1.6-2.4-3.1-3.9-5.1-6l6.1-1.8
			c4.5-1.5,1.9-0.6,6.3-0.2c6.5,0.7,9.2,0.8,15.4-0.2c0.9-0.1,2.5-0.7,3-0.5c1.2,0.3,5.2,3.1,6.4,4.1
			C697.7,747,702.1,752.8,702.5,756.5L702.5,756.5z M772.5,755.1c-3.3,1.7-7.8,2-11.3,2.6c-3.9,0.7-7.2,0.5-11.3,0.1
			c-1.1-0.1-1.8-0.3-2.9-0.4c-4.1-0.4-3.4-1.3-4.4-3.2c-3-6.3-6.2-9-11.6-13.3c1.9-1.1,6.6-1.6,5.3-4.5l2.7,0
			c4.1,0.2,4.3-0.1,7.6-0.3c5.1-0.3,4.2-1.7,7.8-0.2c4.8,2.1,9.2,4.9,12.7,9.2C769.3,747.8,772,752.4,772.5,755.1L772.5,755.1z
			 M727.6,726.9c3.6,3.5,4.9,6.4,6.7,10.3c-3.9,2.5-14.7,4.2-19.5,4.3c-5.7,0.1-14.9-1.3-19.6-3.9c2.6-1.7,5.1-0.9,2.6-5.8
			c-1.5-2.8-3.1-4.9-5.4-7.4c0.8-0.2,1.2,0,2.2,0c0.8,0,1.4,0,2.1,0c5.9-0.3,11.8-1.4,17.4-3.8c2.4-1,1.9-1,4.4,0.2
			C721.8,722.2,724.9,724.2,727.6,726.9L727.6,726.9z M724.2,712.6c-7.2,6-20.6,9.8-29.5,9.5c-5.4-0.1-4.9,0-10.1-3.5
			c2.7-1.6,6.3-1.4,4.5-5.3c-2-4.3-4.2-6.5-4.4-6.9c-0.4-0.9-0.2-0.2-0.2-0.8c5.4,0.7,15.8-2.8,20.1-4.8c2-0.9,1.5-1,5,0.3
			C716.8,703.8,719.7,706.9,724.2,712.6L724.2,712.6z M753,706.7c-4.4,3.4-14.3,6.5-20.2,7.2c-1.4,0.2-2,0.2-3.4,0.3
			c-1.2,0.1-2.6,0.3-3.6-0.1c1.1-1.8-0.1-3.1-1.6-5c-2.7-3.4-6-6.1-9.8-8.2c-1.8-1-3.7-1.5-5.3-2.3c2.8-2,3.1-1.9,5.7-2.1
			c2-0.2,3.7-0.6,5.6-1c2.9-0.7,5.7-1.7,8.5-2.9c1.4-0.6,1.6-1.1,2.9-0.8c3.6,0.9,7.6,2.1,11.3,4.5
			C746.3,698.1,752.2,703.4,753,706.7L753,706.7z M739.9,683.1c-1.6,2.3-10.3,6.8-12.8,7.8c-2.1,0.9-10.8,3.7-13.2,3.3
			c-1.8-5.1-8.9-10.6-14.3-12.9c-1.9-0.8-3.7-1.2-5.3-1.9c1.4-0.5,6.4-0.9,11.4-2.8c3.1-1.2,5.7-2.4,8.5-4.1
			c1.3-0.7,1.7-1.3,2.9-1.3C724.8,671.6,733.5,674.9,739.9,683.1L739.9,683.1z M722.5,663.6c-3.5,4.5-13.8,9.7-18.3,11.3
			c-3.1,1.1-6.3,1.8-9.1,2.2c-2,0.3-7.7,0.7-9.1,0.3c2.2-2.7,3.9-4.9,5.4-7.9c1.9-3.6,3.1-5.1-1.6-6.6c-7-2.3-10.2-0.9-15.8,0.1
			c1.7-2.3,2-1.2,5.7-1.8c6.3-1,12.5-3.1,18.3-6.4c2.2-1.3,2-1.6,6.1-1c2.1,0.3,4,0.7,6.1,1.4C714.8,656.8,718.8,659.3,722.5,663.6
			L722.5,663.6z M762.4,729.2c-2,1.6-9.3,3.6-11.5,4c-4.5,0.9-6.7,1.1-11.5,1.1c-4.9,0-4.1-0.4-5.1-2.1c-4.1-7.4-8.9-10.1-15.4-13.7
			c0.9-0.6,1.9-1.1,2.9-1.7c1.1-0.7,1.7-0.5,2.9-0.4c4.6,0.2,5.4-0.2,8.7-0.4c1.2-0.1,1.8-0.3,2.9-0.5c8.9-1.8,7.2-3.3,11.6-1.1
			c4.3,2.1,8.3,5.4,11.1,9.3C760.6,725.6,761.3,727.3,762.4,729.2L762.4,729.2z M704,777.2c-1.9,0.9-8.9,1.3-10.6,1.3
			c-11.5-0.2-23.5-4.6-32.1-14c1.4-0.7,4.6-0.1,5.6-1.7c0.8-1.3-0.4-4.2-0.6-5.8c7,3.1,14.7,5.1,22.2,4.6c1-0.1,1.8-0.2,2.7-0.3
			c2.9-0.2,3.3-1.5,8,4.9C702,769.9,703.2,773.6,704,777.2z M667.6,736.7c-1.6,0.9-4.3,1.8-6,2.4c-5.1,1.5-4.9,1.2-9.3,2.1
			c-1.7,0.3-7.7,0.5-9.3,0.3c-2-0.2-11-1.4-12.4-2.6c-0.3-0.2-1.4-2.4-1.8-3c-2.5-3.8-5-5.6-8.5-8c1.1-0.8,3.6,0.1,6.2,0.4
			c6.5,0.7,12.4,0.3,19.1-1.5c2-0.5,4.2-1.3,6.2-2.2c4.3-1.8,3-2.6,6.4,0.1c2.2,1.7,4.2,3.7,5.9,5.9
			C665.1,731.7,667.5,735.5,667.6,736.7L667.6,736.7z M707.6,644.6c-6,6.4-14.9,11.1-22.9,13.4c-2.8,0.8-5.3,1-7.8,1.4
			c0-0.5,2.6-5,3.3-6.7c1.5-3.5,0-3.8-3.2-4.8c-6.6-1.9-9.3-0.2-13.3,0c1.2-2.4,0.3-1.5,4.5-3c1.7-0.6,3.8-1.6,5.6-2.6
			c2.9-1.5,5.6-3.3,8.2-5.4c1-0.8,1.9-1.9,2.9-2c1.1-0.1,4.1,0.3,5.5,0.6c1.9,0.3,3.7,0.7,5.7,1.5
			C700.4,638.5,704.2,640.8,707.6,644.6L707.6,644.6z M687.5,715c-3.2,2-9.9,3.6-13.1,4.1c-4.9,0.8-5.5,0.7-9.9,0.7
			c-1.2,0-2.1-0.3-3.3-0.4c3.4-2.9,6.6-2.7-0.2-9.4c-3.1-3-7-5.5-11-6.9c-1.4-0.5-2.6-0.7-3.8-1.3c1.4-0.5,5-0.4,11.1-3.2
			c0.8-0.4,1.9-1,2.7-1.4c1.4-0.5,6.7,0.8,8.3,1.3C675.6,700.6,684.8,706.9,687.5,715L687.5,715z M689.2,626.7
			c-3.2,4.2-7.2,7.9-11.5,10.8c-2.8,1.9-5.8,3.5-8.8,4.8c-1.7,0.7-2.3,1-3.1,1l1.5-6.2c0.6-2.3,0.8-4.4-2.5-4.5
			c-3.8-0.1-5.3-0.1-9.2,1c-1,0.3-2.1,0.8-3.1,1.1c1.2-4.1,1.2-4.2,1.9-8.1c0.2-1.1,0.9-1.3,2.1-2.1c6.2-4.4,2.6-3.9,10.9-4.8
			c3-0.3,7.2,0,10.9,1.1C680.8,621.4,687.5,624.2,689.2,626.7z M696.8,734.5c-6.3,3.6-16.7,5.1-23.9,4.5c-1-0.1-2.6-0.5-3.5-0.3
			c0-0.1,0-0.2,0-0.2c0,0,0.7-1.5,0-3.2c-3.1-7.1-6.2-9.3-11.6-13.8c0.8-0.3,4.4,0.3,5.3,0.4c2.6,0.3,7.8,0,10.4-0.4
			c7.7-1.2,6.5-2.7,10.5-0.7c1.8,1,3.5,2,5.2,3.4C692,726.6,696.1,731.5,696.8,734.5L696.8,734.5z M669.9,606.7
			c-3.9,6-8.7,12.4-15,16.3c-1-3.4-3.9-2.2-6.1-2c-1.3,0.1-2.3,0.3-3.5,0.7c-0.6,0.2-1.1,0.4-1.7,0.6c-0.7,0.2-1.2,0.6-1.9,0.6
			c0.7-2.2,1.8-7.4,1.7-9.5c-0.2-3.9-6.8-1.7-8.8-1.6c1.4-1.6,2.6-2.9,3.8-4.7c1.7-2.5,1.2-2,4-3c5.9-2.1,12.4-2.9,18.3-1.4
			C662.8,603.3,668,604.9,669.9,606.7L669.9,606.7z M621,704.3c-5,4.9-11.1,7.6-16.5,8.9c-2.5,0.6-6.1,1-8.2,0.9
			c-1.5-0.1-7-0.4-8.5-1.5c2.4-2.2,2-2.8-0.1-5.1c-1.8-1.9-3.2-2.8-5.2-4.2c4.8-3.1,2.9-1.5,9.5-1.9c5.3-0.3,9.2-1.1,14.3-3.7
			c1.4-0.7,1-0.4,2.4-0.1c0.9,0.2,1.6,0.3,2.5,0.6C615.1,699.5,617.8,701,621,704.3L621,704.3z M625.1,722.4
			c-6.6,5.2-15.7,6.9-22.7,6.6c-2.5-0.1-6.8-1-9.2-1.9c-1.1-0.4-3.3-3.1-4.4-4.1c4.3-3.1,6.3-3,2.9-7.1c0.6-0.1,3.3,0.2,4,0.3
			c1.3,0.1,2.8,0,4.3-0.1c3.1-0.3,7.6-1.4,10.5-2.6c1.1-0.5,1-0.2,2.1,0.2c1.6,0.5,2.7,0.9,4.3,1.7
			C620.5,717.3,622.4,719.2,625.1,722.4L625.1,722.4z M690.9,665.6c-2.6,4.5-2.9,6.4-7.2,10.9c-2.3,2.4-8.3,7.3-10.9,7.6
			c-0.5-1.8-5.4-3.8-6.9-4.3c-3.6-1.3-6.7-1.2-7.5-1.5c1.4-1.4,2.8-2.6,4.1-4.2c1-1.2,2.3-3.2,3.2-4.1c0.4-0.4,3.5-2.6,4.1-3
			c3.3-2,9.2-3.3,12.6-3.2C684.4,663.8,688.7,664.2,690.9,665.6L690.9,665.6z M628.9,740.8c-4.1,2-11.9,3.1-16.3,2.6
			c-4.9-0.6-11.2-1.9-16.5-5.8l0.2-0.5c0.1-0.1,0.1-0.3,0.2-0.5c0.2-0.5,0.2-0.4,0.2-0.9c0-0.6-0.3-1.4-0.5-2
			c-0.6-1.8-1.5-3.3-1.5-4c2.9,1,6.5,1.3,9.2,1.4c6.8,0.4,13.4-2.3,13.9-2.3C620.2,729,628.8,737.4,628.9,740.8L628.9,740.8z
			 M617.1,686.7c-4.9,5.2-8.6,8.1-15,10.6c-3,1.1-10.6,2.9-13.5,2l0-0.3c0.2-2-0.5-2.6-2.8-4.8c-2-1.8-3.4-2.4-5.4-3.8
			c1-0.7,3.2-0.3,4.5-0.5c6.7-0.9,12.5-2.7,18.3-6.9c2.5-1.9,1.8-1.7,4.6-1C610.9,682.7,614.2,684.1,617.1,686.7L617.1,686.7z
			 M560,576.3c3.3,4.3,4.9,13.2,4.6,18.9c-0.1,2.5-0.9,6.5-2.1,9.5c-1.3,3.5-3,6.6-5.7,9.8c-0.1,0-0.2-0.1-0.2-0.1l-1.1-0.6
			c-1.2-0.7-2.8-0.9-3.8-1.3c3.8-8.6,3.8-17.5,0-25.3c-0.6-1.2-0.6-1.1,0.1-2.3C554.3,580.5,556.2,579,560,576.3L560,576.3z
			 M613.8,594.5c0.7,1.3,0.7,4,0.8,5.3c0.4,4.6-0.6,11-2.7,15.6c-1.7,3.7-4.2,7.5-7.5,10.5c-1.1,1.1-1.4,0.8-2.7,1
			c-4.3,0.8-3.2,2-8,0.3c1.1-1.5,2.1-3,3.1-4.6c1.4-2.3,0.5-1.5,2.5-4.7c1.9-3.2,3.1-6.3,3.9-9.4c0.4-1.3,0.7-3.4,0.8-4.6
			c0.4-4.5-0.8-5,5-7.8C611,595.3,613,594.8,613.8,594.5L613.8,594.5z M584.4,610.6c-0.5,1.1-0.8,2.3-1.4,3.5
			c-0.5,1.2-1.1,2.3-1.8,3.5c-1.4,2.5-3.3,5-5.4,7.2c-1.2,1.2-7,6.5-8.7,6.2c-0.4-0.1-1.3-0.5-1.8-0.6c-1.4-0.4-2.4-0.5-3.6-0.8
			c0.7-1.3,1.4-2.8,1.8-4c0.6-1.4,1.3-2.9,0.7-4c-1.1-1.8-6.5-2-7.7-2.1c4.4-5.6,13.6-10,20.8-10.3
			C578.8,609.5,582.9,609.8,584.4,610.6L584.4,610.6z M621.8,706.6c2.7-2.5,1.4-4-2.9-7c-3.8-2.6-5.2-2.5-7.5-3.7
			c1.9-1.6,4.1-0.7,7.7-1.4c6.4-1.2,9.8-3.1,15.2-6.5c1-0.7,2.6-0.3,3.8-0.1c2.5,0.4,5.5,1.6,7.7,3c1.1,0.7,1.2,0.5-1.4,3.5
			c-4.2,4.9-9.3,8.4-15.2,10.6C627.6,705.6,623,706.8,621.8,706.6L621.8,706.6z M637.5,664.5c-0.6,1.8-4.7,6.5-6.3,8
			c-4.8,4.5-9.8,7.1-15.8,8.7c-2.2,0.6-1.9,0.4-4-0.4c-1.3-0.5-3.2-0.8-4.1-1.2c1.6-1.9,7.3-7.3,6.6-10.1l-0.2-0.8
			c8-3.3,5.9-2.9,11.9-7c0.9-0.6,1.9-0.3,2.9-0.2C630.9,661.8,635.6,662.9,637.5,664.5L637.5,664.5z M602,667
			c1.7,0.5,6.7,0.6,9.9,3.2c-6.3,9.1-12.6,14.5-23.5,16.9c-0.4,0.1-3.1,0.5-3.8,0.4c2.9-2.5,2.2-3.3-0.5-5.9c-2.3-2.1-3.8-2.6-6-4
			c0.8-0.3,1.9-0.3,2.9-0.4C589.3,676.1,595.5,673,602,667z M670.7,684.8c-4.9,5.9-8.1,9.6-16.1,12.6c-2,0.8-4.3,1.5-6.1,1.8
			l-6.1,0.6c1.9-2,3.3-3.3,5-5.5c1.1-1.4,2-2.4,1.2-3.7c-1.2-2-5.4-3.1-7.1-4c4.4-1.5,5.9-1.3,10.9-4.1c1.3-0.7,2.4-1.7,3.6-1.8
			C659.4,680.3,666.8,681.2,670.7,684.8z M628.1,604.1c0.7,2.6-0.3,10-1.3,13.2c-1.3,4.4-3.9,9.7-7.8,13.4c-1.3-2.4-6.3-3.7-8.9-4
			c-0.9-0.1-2.5-0.2-3.1-0.3c9.6-10.7,7.4-16,10.1-18c2.4-1.8,4.6-2.9,7.3-3.7C625.4,604.4,627.2,603.8,628.1,604.1L628.1,604.1z
			 M600.3,588.6c1.8,3.9,2.2,11.1,1.8,14.6c-0.4,3.4-2.3,11.2-5.6,14.9c-3.9-2.5-9.7-2.4-10.8-2.7c4.1-6.2,5.6-12,5.8-18.5
			c0.1-2.7-0.5-2.3,1.3-3.9C595.4,590.8,597.6,589.7,600.3,588.6L600.3,588.6z M573.8,579.5c1.4,2.2,2.8,8.2,3,10.2
			c0.6,5.1,0.2,10.6-1.8,15.6c-1.2,3.2-1,2.1-3.9,2.9c-5.6,1.5-9.2,4.5-10.3,4.8c0.1-0.6,1.9-3.5,2.4-4.4c0.7-1.5,1.3-2.9,1.8-4.5
			c1.4-4.5,2.1-8.8,1.7-13.3c-0.6-5.7-1.6-5.1,2.5-8.6C570.6,581.2,572.3,579.9,573.8,579.5z M641,613.4c0.1,5.8-2.4,13.2-6,18.4
			c-0.9,1.3-4.2,5.7-5.5,5.9l-2.8-1.3c-2.1-0.9-4.6-1.6-6.9-1.6c-1,0-0.8,0.1-1.7-0.3c11.2-10.5,9.9-17.2,11.7-18.4
			c0.9-0.6,2.6-1.3,3.7-1.6C635.6,613.8,639.6,613,641,613.4z M607.4,656.1c-5.2,8.2-9.7,13.7-19.5,17.2c-1.7,0.6-6.1,1.8-7.3,1.7
			c3.9-3.7,5.2-4.3,1-7.4c-1.8-1.3-3.3-2-5.1-2.8c7.9-1.5,14.7-3.7,21.1-10.1c0.9-0.9,1-1.1,1.9-1
			C601.6,653.9,605.2,654.7,607.4,656.1L607.4,656.1z M595.7,620.2c-0.6,1.8-3.8,6-5.3,7.7c-2.3,2.6-4.9,4.8-7.7,6.5
			c-3.9,2.4-11.4,5.2-15.6,5c0.5-2.2,3.5-4.6,2.4-6.7c5.5-4.2,8.6-5.6,12.8-12.6c1-1.6,0.6-3.1,6.1-2.2
			C590.4,618.2,593.7,618.9,595.7,620.2L595.7,620.2z M488.9,591.1c-0.2,2.1-0.4,3.9-0.1,5.7c-0.5,0.1-0.1,0.1-0.5,0
			c-2.1-0.2-7.2-3.1-8,0.7c-0.4,2.2,0,6.8,0.9,9.1c-2,0.5-8.5-1.3-10.5-2.2c-4.4-1.9-6.8-4-10-8c6-4.8,17.4-7.4,24.7-6.1
			C486.5,590.6,487.9,590.7,488.9,591.1L488.9,591.1z M638.4,684.7c1.3-1.5,5.1-5.3,5.5-6.9c0.6-2.3-4.2-3.8-5.9-4.8
			c1-0.6,2.2-0.8,3.4-1.2c3.7-1.5,7.3-3.7,10.4-6.4c1.7-1.5,1.6-1.2,3.3-1c3.2,0.3,5.6,0.8,8.6,2.3c0.9,0.4,1.3,0.4,0.9,1.2
			c-1.9,4.1-8.5,10.1-12.4,12.4C647.8,682.7,642.4,684.5,638.4,684.7L638.4,684.7z M629.5,578.3c1,3-0.5,11.7-1.8,15.4
			c-0.9,2.7-2.1,5.1-3.8,7.7c-1.3,2-1.4,1.5-3.3,2.4c-1.1,0.5-3,1.9-4,2.1c0-2.4,0.4-2.9,0.2-7c-0.1-0.9-0.3-2.4-0.5-3.5
			c-0.2-1.2-0.3-2.4-1.8-2.9c0.3-1.6,1.2-3.4,1.5-5.2c0.6-3.4,0.2-3.2,2.7-4.9c2.5-1.8,5.1-3,7.9-3.6L629.5,578.3z M503.2,611.2
			c-5.2,5.7-3.7,5.3-6.5,9.7c-8.1-4.2-16.1-13.9-14.2-23.2C489.4,598.4,499,603.5,503.2,611.2L503.2,611.2z M658.7,653.1
			c-3.4,5-5,8.1-10.3,12.1c-2,1.6-4.1,2.7-6.3,3.7c-1.1,0.5-2.1,0.9-3.2,1.3c-1.1,0.4-2.2,0.6-3.2,1c0.1-1.4,4.2-4.9,4-7
			c-0.2-2.2-4.7-3.2-6.3-4c2.4-1.7,4.2-2.7,6.4-5c1-1,1.9-2.1,2.8-3.2c1.2-1.6,1.5-1.1,3-1.4C648.3,650.2,655.3,650.4,658.7,653.1z
			 M547.7,580.2c-1.6-0.4-1.6-1.1-3.5,0.6c-1.4,1.2-2.3,2.3-3.4,3.7c-0.9-1.2-1.6-2.5-2.6-3.6c-2.1-2.6-1-0.4-2-3.6
			c-1.2-4.1-2.5-7.4-4.9-11c-1.4-2.1-1.5-1.4-0.7-3.7c0.7-2.3,2.1-5.3,4-7.3c6,4.5,10.2,11.7,12.1,18.6
			C547.1,575.3,547.7,579.1,547.7,580.2L547.7,580.2z M603.4,643.4c-4.9,9.4-14.1,16.9-24.7,18.7l-1,0c2.2-2.4,4-3.8,0.8-6.1
			c-2.1-1.5-4.6-2.4-6.3-3.1c2.7-0.9,7.3-0.3,15.6-5.4c1.3-0.8,2.6-1.7,3.8-2.7c0.6-0.5,3.7-3.5,3.9-3.6
			C596.4,640.8,601.8,642.5,603.4,643.4L603.4,643.4z M546.7,608.2c-1.2,2.4-1.2,3.9-3.6,7.8c-1.8,3-4.2,5.6-6.9,7.9
			c-0.6,0.2-0.1-0.7-3.5,0.6c-1.1,0.5-2.4,1.4-3.5,1.6c-0.3-4.9,0.8-9.8-5.1-7.2c-0.3,0.1-0.5,0.2-0.8,0.3c-0.2,0.1-0.3,0.1-0.5,0.2
			c-0.5,0.2-0.3,0.1-0.5,0.1c-0.9-3.9,0.3-4.3,3.2-6.6c4.2-3.3,8.9-5.4,14-5.8C541,607.2,544.9,607.3,546.7,608.2L546.7,608.2z
			 M631.7,651c-0.6,1.7-4.2,5.9-5.7,7.4c-2.3,2.3-4.9,4.2-7.5,5.7c-1.5,0.8-6,3-7.3,3.1c-0.8,0.1-2.8-1-3.7-1.2
			c-1.1-0.3-3.1-0.5-3.7-0.9c1.8-2.1,4.4-5.6,5.4-7.9c0.9-2-0.4-0.8,3-2.1c1.4-0.5,2.6-1,4-1.7c3.6-1.8,6.9-5.1,7.8-5.1
			C625.4,648.2,630.3,649.8,631.7,651z M652.8,623.2c-0.2,0.8-0.2,1.4-0.3,2.3c-0.8,5.9-2.7,12.4-6.6,17.3
			c-4.5-2.8-12.8-2.5-17.5-0.2c0.6-2.8,6.5-5,11-14c1.2-2.4,0.9-3.1,6-4.6C647.2,623.4,651.2,622.3,652.8,623.2z M592.2,629.3
			c1.9,0.6,5.1,0.8,7.4,2.4c-5.2,8.2-9.8,13.8-19.8,17.3c-1.3,0.5-5.8,1.8-7.4,1.6c1-1.4,3.4-4.5,3.5-5.8c0.1-2.2-3.5-2.8-4.9-3.6
			C580.3,638.9,584.7,636.9,592.2,629.3z M562.4,622.9c-2.3,6-4.6,10.9-10.5,15.7c-0.9,0.7-3.1,2.4-3.9,2.7c-1.1,0.5-5-1.9-11.9-0.5
			c0-0.9,0.7-2.8,0.9-3.9c0.4-2.4,0.2-1.5,2.6-2.6c4.5-2.1,8.4-5,11.7-8.9c0.9-1.1,2-3.2,3.1-3.4C556.2,621.8,560.6,622,562.4,622.9
			z M508.8,587.3c-1-0.8-4.8-3.6-6-3.7c-0.9-0.1-1.2,0.5-2,0.7c-2.1-1.4-3.7-2.4-5.9-3.4c-1.1-0.5-5.8-2-6-2.1
			c-1.5-1-2.2-9.3-1.4-11.9c3.8,0,11.4,3.7,14.8,6.2c2.7,1.9,5.2,4.3,7.2,7c0.4,0.5,1,1.3,1.4,1.8c0.6,1,0.4,0.7-0.2,1.8
			C510,584.6,509.3,586.9,508.8,587.3L508.8,587.3z M613.9,570.7c0.6,1.4,0.9,6.1,1,7.3c0.1,2.4-0.3,4.8-0.7,7.5
			c-0.1,1-1.5,6.5-2.4,7.2c-0.5,0.4-3.7,1-7.4,3.8c-0.9-1.1-0.4-8.3-3.5-10.2c0.7-2.2,1.4-5.3,1.5-7.6c0.1-1.4-0.2-1.4,1.3-2.7
			C606.3,573.7,611.1,570.9,613.9,570.7z M568.9,654.6c2.5,0.3,6.6,1.5,9.1,3.8c-6.4,8.2-14.1,11.7-23.3,12.6c-4.5,0.5-4-0.2-8-2.9
			c1.7-1.4,3.6-2.4,5.4-4c1.8-1.6,2.5-1.1,5.7-2.4C562.2,660,564.9,658.1,568.9,654.6L568.9,654.6z M534.6,579.8
			c-2.4,2.5-3,3.3-4.8,6c-0.8-1-3.6-3.9-4.1-4.7l-2.3-4.7c-2.3-4-4.2-6-7.5-9.4c0.5-2.3,1.4-7.3,3.8-9.5c4.1,2.7,7.8,6.6,10.4,10.7
			C532.2,571.6,534.3,576.5,534.6,579.8L534.6,579.8z M627.8,639.4c-4,5.7-6.6,9-12.9,12.2c-7.2,3.8-7.3,1.9-10.7,0.9
			c-1.3-0.4-2.5-0.5-3.7-0.9c1-1.1,1.8-2.3,2.7-3.6c1-1.6,1-2.3,2.7-3.2c7.1-3.7,8.3-7.9,10.8-8.1
			C619.9,636.5,624.9,637.3,627.8,639.4z M598.6,564.4c0.9,1.4,1.5,6.1,1.6,7.4c0.2,3.6,0.4,3.3,0,7.3c-0.1,1.4-0.3,2.4-0.6,3.7
			c-1.7,7.3-1.3,2.4-8.2,8.7c-0.3-0.5-0.3-1.3-0.4-1.9c-0.2-1.4-1.6-6.6-2.3-7.6c-1.3-1.9-1,0.6-0.6-3.7l0.1-5.8
			c0-1.5,0.8-2.1,2.6-3.6C593.9,566.2,595.7,565.9,598.6,564.4L598.6,564.4z M590,738.7c3.4,5.6,3.4,18-1.7,22.7
			c-3.9-3.1-6.8-7.4-8.4-11.5c-1.4-3.5-2.4-9.3-1.7-11.9C579.3,737.9,583.4,739.5,590,738.7z M678.6,650.7c-0.1,1.5-3,6.3-4.1,8
			c-2.1,3-4.5,5.5-7.5,7.8c-2.6-3.4-9.3-3.8-11.9-4.4c1.8-2.5,3.3-4.3,4.9-6.9c0.9-1.6,0.7-2.1,1.6-3.4c1-1.5,1.6-1.3,3.2-1.7
			C668.7,648.8,675.2,648.8,678.6,650.7z M633,673.8c2.7,0.7,6.1,1.3,8.7,3.6l-4.1,5c-2.7,3-8.6,6.6-11.8,7.9
			c-4.5,1.8-7.9,2.3-11.8,2.5c7.5-7.2,6.1-5.9,2.2-9.6C622.8,681.6,627.1,678.9,633,673.8z M586.9,583.2c3.4,5.6,3.4,19.8-0.4,26.4
			c-1.4-1.7-3.4-1.7-4.9-1.9c-1.9-0.3-3.3-0.2-5-0.3c2.5-6.5,2.7-10.5,2.4-16.4c-0.1-1.7-0.7-1.8,1-3.4
			C581.9,585.8,584.8,583.5,586.9,583.2L586.9,583.2z M582.8,559.6c2.3,4.2,3.3,10.8,3.4,14.3c0,0.8-0.2,6.4-0.7,7.2
			c-0.2,0.4-2.7,1.6-3.4,2.1c-1.4,0.9-2.4,1.8-3.7,3c-0.5-0.9-1-3.3-1.4-4.6c-0.9-2.4-0.7-2.8-3-4.4c0.3-1.6-0.2-5.4-0.5-7.3
			c-0.2-1.1-0.5-1.4,0.1-2.4C575.8,564.1,579.6,561,582.8,559.6L582.8,559.6z M522.9,580.1c-2.2,1.7-2.6,3.7-4,5.1
			c-6.1-5.8-5-2.5-6.8-5.2c-1.7-2.6-4.2-5.1-6.5-7.1c-1.6-1.3-3.3-2.3-4.8-3.5c0.2-2.1,0-5.5,1.4-8c4.5,2.1,7.5,3.1,11.9,6.9
			C517,570.7,522.2,576.9,522.9,580.1L522.9,580.1z M564.8,642.5c2.4,0.1,6.2,0.4,8.9,2.3c-3.9,6.1-7.1,10.4-14.1,13.9
			c-1.8,0.9-4,1.5-5.5,2.2c-2.5-3.5-6.4-5.1-9.5-6.5C555.2,651.4,556.7,650.5,564.8,642.5z M513.6,607.7c0.2,3.9,0.5,7.5-0.7,11.9
			c-1,3.8-3.2,8.7-6.3,12.1l-8.7-7.8c3-6.2,5.6-12,13.1-15.4c0.4-0.2,0.8-0.3,1.2-0.5C513,607.6,513,607.6,513.6,607.7L513.6,607.7z
			 M586.6,724.1c5.9,4.5,5.8,7.2,7.9,11.6c-1.5,0.9-5.8,1-7.2,1.1c-0.9,0-2.5,0-3.5-0.1c-6.1-0.9-12.3-2.4-17.6-7.5
			c0.2-0.5,0.6-1.6,0.8-1.9C571.3,728.9,582.2,726.7,586.6,724.1z M642.9,588.5c0.1,1.1-0.2,2-0.4,3.1c-0.9,7.3-6.1,16.5-12.3,21.3
			l0.2-3.4c1-9.6-2.5-7.4-4.2-7.5c0.1-0.7,2.3-4.5,2.8-5.7c0.5-1.2,1.5-5.2,2.2-5.7c1.1-0.8,4.8-1.8,5.8-2
			C638.6,588.3,641.4,588.1,642.9,588.5L642.9,588.5z M566.3,557.3c2.7,3.2,4.7,10.4,5.3,13.5c0.2,1.3,0.6,6.1,0.4,6.8
			c-0.2,0.6-2.3,1.6-3,2.1c-1.2,0.9-2.4,2-3.5,3.2c-0.4-0.6-2.3-6.5-3.7-8.1c-0.9-1-0.9-0.3-1-1.6c-0.3-2.4-0.5-4.2-1.4-6.7
			c-0.6-1.7-0.4-1.7,0.8-3.4C561.3,561.3,564.2,558,566.3,557.3L566.3,557.3z M586.5,698c-3.9,4.2-14.6,7.2-20.4,6.9
			c-0.9-0.1-2.3-0.1-3.4-0.3c-1.4-0.2-2-1.2-3.2-2.5c1.1-0.4,4.4-0.7,5.4-1.6c1.9-1.7-0.2-3.6-0.6-5.6c1.6,0.5,8.8-1.4,11.1-2.2
			c1.4-0.5,2-1.1,2.7-0.9C580.6,692.3,584.7,695.9,586.5,698L586.5,698z M557.9,715.3c4.4,3.8,6,7.9,6.8,12
			c-2.3,1.1-9.9-0.2-12.5-0.9c-4.4-1.3-9-4.1-12.6-8.1c1.4-0.5,3-0.6,4.6-1.1c1.6-0.5,3-1,4.6-1.8c1.1-0.5,1.3-0.4,2.3-0.2
			C552.6,715.5,556.6,715.6,557.9,715.3L557.9,715.3z M558.6,574.6c-6.4,4.5-4.8,4.1-8.6,9c-0.2-0.7-0.1-1.6-0.1-2.3
			c0-1,0-1.6-0.1-2.6c-0.1-1.4-0.5-3.5-1-5c-0.8-3-2.2-7.1-4.2-10c2.2-3.5,2.7-5,6.3-8.1c1.9,1.5,4.8,7.4,5.6,9.5
			C557.6,567.8,558.8,572.5,558.6,574.6z M587.2,710.2c-2.9,2.9-10,5.5-13,6.2c-3.4,0.8-6.6,0.8-9.9,0.4c-2-0.2-1.6,0.1-3.3-1.7
			c1.2-0.8,4.4-0.2,4.5-2.8c0-1.8-1.5-3.7-1.9-5.5c5.3,0,9,0.3,14.7-1.8c1.6-0.6,1.5-1,3,0C583.5,706.4,585.4,708.1,587.2,710.2
			L587.2,710.2z M665.5,634.9c0,4-3.2,12.5-6.1,16.1c-5.7-3.6-13-2.3-14.3-2.6c0.6-0.9,1-2.1,1.7-3c0.8-1.1,1.5-2,2.2-3.1
			c2.5-4,1.4-4,4.2-5.3C657.5,634.9,661.9,634.4,665.5,634.9L665.5,634.9z M573.4,666.1c2.3,0.5,6.6,2.4,8.5,4.6
			c-2.6,3.1-6.4,5.7-9.7,7.4c-4.8,2.4-7.6,2.3-9.3,3.1c-1.4-1.5-2.2-2.9-3.9-4.5c-1.5-1.4-3.1-2.2-4.5-3.3
			C560.1,673,567.3,670.9,573.4,666.1L573.4,666.1z M584.3,684.9c-3.5,3.3-8.6,5.7-12.5,6.7c-1.7,0.5-8,2-9.2,0.7
			c-1-1.1-1.8-2.1-3-3.2c3.1-1.3,7-0.3,4.3-5.9l5.1-1.4c7.2-2.4,4.9-4.1,10.1-1.2C581.1,681.8,582.6,683,584.3,684.9L584.3,684.9z
			 M548.3,644.3c-3.4,7.3-9.1,13.6-16.6,16.6l-0.4-3.8c-0.9-8-2.2-4.4,0.1-7.6c4.1-5.9,2-6,5.3-6.5
			C540,642.4,545.3,642.3,548.3,644.3L548.3,644.3z M517.6,586.9c4.4,4.3,6.6,8.9,7.8,13.8c0.5,2.2,1.8,8.6-0.2,10
			c-1.2,0.9-2.3,1.8-3.5,2.9l-1.3-1.1c-0.4-10.5-2.2-15.1-9.6-23.4c0.4-1.6,1-3.3,2-4.9c0.7-1.1,1-0.4,2.1,0.5
			C515.8,585.2,516.7,586.1,517.6,586.9z M499.9,586.4c-0.1,0.5-1.1,3.7-1.2,4c-1.7-0.8-3-1.5-4.7-2.1c-1.8-0.7-3.2-1.5-4.5,0.6
			c-0.9,0-2.5-0.4-3.4-0.5c-2.9-0.4-7.6-0.5-10.5,0.1c-2.1-2.5-2.7-6-3.5-7.8c1.3-0.7,5.5-0.9,7.1-0.9c2.1,0,4.6,0.2,6.9,0.6
			C490.2,581.2,496.5,583.4,499.9,586.4L499.9,586.4z M547.5,611.8c0.6-1,1.5-3.4,1.2-4.2c-0.5-1.9-2.7-1.7-4-2.2
			c-0.1-4.1,1-6-0.4-11.7c-1.8-7.6-3.4-5.9-1.3-8.6c0.9-1.2,1.8-2.1,2.9-3c1.6,1.1,4,6.1,4.6,7.8c1.3,3.5,2.3,8.4,1.8,11.9
			c-0.5,3.4-0.5,4.5-1.8,8C549.8,611.9,549.7,612.7,547.5,611.8L547.5,611.8z M542.5,605.1c-0.8,0.1-2.4,0-3.5,0.1l-3.1,0.4
			c-0.4,0-0.2,0-0.5,0c-0.1-0.7,0.1-3.1-0.2-6c-0.3-2.8-1.4-6.3-2.6-9c-0.4-0.9-1.5-2.2-1.2-3c0.4-1.5,3.1-5,4.6-6.1
			c4.4,5,6.9,11.5,7.2,17.7C543.1,600.5,543,603.8,542.5,605.1L542.5,605.1z M510.3,606.3c-1.7,1.2-3.4,1.9-5.4,3.4
			c-3.3-4.5-5.6-7.3-10.5-10.1c-3.3-1.9-3.3-0.7-3.6-4.1c-0.1-1.1,0.1-4.5,0.8-5.8c1.8,0.8,3.4,1.2,5.3,2.2c1.9,1,3.8,2.2,5.5,3.7
			C506.6,599,508.2,602,510.3,606.3z M591.1,718.7c-3.7,3.6-10.5,5.7-15.3,6.5c-1.1,0.2-1.9,0.2-3,0.2c-2.3,0.1-4.1,0-6.3-0.4
			c-0.4-0.7-0.7-2.1-1.1-3.1c-0.4-1-1.3-2.1-1.4-3.1c6.1,1,14.5-0.8,20.3-4.2c1.8-1.1,1.6-0.9,3.4,0.5
			C589,716.3,590.2,717.4,591.1,718.7L591.1,718.7z M616.9,631.2c-1.6,2.4-2.8,4.2-4.9,6.4c-1.1,1.1-5.6,5.5-6.7,4.7
			c-3.6-2.7-4.6-1.9-8-3.2c1.2-1.7,2.2-3,3.2-4.8c1.2-2,1.9-3,0-4.7C605.3,628,612.9,628.1,616.9,631.2z M551.8,661.4
			c-2,2.6-6.9,5.4-9.6,6.6c-3.7,1.7-6.7,2.1-9.8,2.7c-0.7-2.2-0.1-5.2-0.7-7.3c2-1.5,4.7-1.5,10.2-6.5c1.2-1.1,2.1-0.6,5,0.8
			C548.6,658.6,550.3,659.8,551.8,661.4z M535.1,626.1c0.9,2.6,0.3,8.7-0.4,11.6c-0.9,3.5-3,8.5-5.8,11.8l-6.1-4.9l0.7-1.3
			c2.5-3.7,4.2-7.8,5.1-12.1c0.3-1.3-0.1-1.7,1.3-2.6C531.2,627.6,533.6,626.4,535.1,626.1L535.1,626.1z M560.8,631.8
			c1.8,0.6,4.6,0.3,6.7,1.9c-0.8,3.3-5.8,9.3-8.7,11.7c-1.7,1.4-9.4,6.5-12.2,6.1c1-1.4,1.9-2.9,2.7-4.4c1.9-3.6,0.9-2.9,0.7-4.5
			C559.4,635.7,558,634.6,560.8,631.8L560.8,631.8z M551.6,675.2c-6,4.8-13.3,6.7-18.6,6.9c-0.4-1.1-0.7-7.9-0.7-9.4
			c2.4,0,7.2-1.4,9.7-2.4c2.6-1.1,2.1-1.3,4.9,0.6C548.9,672.2,550.1,673.5,551.6,675.2L551.6,675.2z M554.8,615.8
			c-1.7,3.7-3.8,7.1-7,10.3c-2.5,2.5-7.1,5.8-10.1,6.6c-0.2-0.6,0.1-2.7-0.1-4.7c-0.4-3-0.4-1.8,2.2-4.4c3.6-3.5,4.5-5.9,6.9-9.5
			C548.9,614.1,552.2,614.3,554.8,615.8L554.8,615.8z M516,613.7c-0.5-1.6,0.4-6.3-1.1-7.8c-1.1-1-1.6-0.5-2.6-0.4
			c-2.7-4.6-3.1-6.7-7.7-10.9c-1.3-1.2-2.7-2-3.9-3.1c0.7-1.6,0.7-3.4,2-5.6c9.5,4.9,15.2,14.8,15.5,25
			C518.3,613.1,518.3,612.6,516,613.7L516,613.7z M533.2,606.3l-4.8,2.2c-0.4-2.2,0.4-4.8-1.6-10.8c-1.4-4.4-3.1-6.7-6.2-10.8
			c0.6-1.4,1.7-3.6,3.1-4.7c6.2,5.7,9.7,13.1,9.7,21C533.4,604.4,533.2,605.2,533.2,606.3L533.2,606.3z M644.6,644.6
			c-2.4,5.3-6.4,10.3-11.6,13.4c-2.1,1.3-2.8,1.9-4.9,1.3c1.7-1.8,6-6.8,5.8-8.6c-0.4-2.5-6.7-3.7-8.1-4.4c2.5-2,6.9-2.8,9.4-3.1
			C637.3,642.9,641.9,643,644.6,644.6L644.6,644.6z M551,687.2c-5.4,4.2-11.8,6.2-16.7,6.7c-0.3-0.8-0.2-1.3-0.3-2.2
			c-0.1-0.9-0.3-1.3-0.3-2.4c-0.1-1.8-0.4-3.1-0.4-4.9c2.7-0.1,5.9-0.6,9-1.6c2.6-0.8,2-1.4,4.6,0.4
			C548.1,684,550.3,685.9,551,687.2z M552,698.8c-2,2.3-8.6,5.2-11.8,6c-1.5,0.4-2.8,0.5-4.1,0.9c-0.6-1-1.7-8.8-1.6-9.6
			c2.9-0.5,5.4-0.8,8.7-2.1c1.9-0.7,1.7-1.1,4.4,0.8C549.4,695.9,550.7,697.2,552,698.8L552,698.8z M519.7,614.6
			c2,5-1.7,19.3-6,22.9l-5.5-4.5c2.6-3,4.9-7.1,5.9-10.5C515.9,617.1,514.3,615.9,519.7,614.6z M526.6,620.5
			c1.6,6.1-1.3,17.5-5.8,22.7l-5.4-4.2c2.5-3.1,4.5-7.3,5.5-10.6c0.6-2.1,0.7-3.2,1.1-5.2C522.2,621.7,525.4,620.6,526.6,620.5
			L526.6,620.5z M554.2,709.5c-2.6,2.9-10.2,5.9-14.6,6.6l-1.1,0c-0.6-1.5-2-7.2-2-8.4c2.3-0.2,6.1-1.2,8.8-2.4
			c2.5-1.1,1.9-1.7,4.4,0C551.4,706.4,552.9,707.8,554.2,709.5L554.2,709.5z M563.5,698.8c-2.7,1.1-6.9,1.5-9.7,1.5
			c0.9-2.1,0.3-2.5-1.5-4.5c-1.6-1.7-3-2.6-4.8-3.8c4.5-3.3,3.7-2.2,6.8-2.4c0.9-0.1,1.6-0.4,2.5,0
			C559.6,691.2,562.9,696.2,563.5,698.8L563.5,698.8z M553.9,675.4c5.2,3.3,6.5,5.4,8.8,10.4c-1.9,1-8,1.8-9.3,1.5l-0.3-1
			c-0.7-1.9-4.4-4.5-5.9-5.7C549.4,679.2,552.7,678,553.9,675.4L553.9,675.4z M563.3,712.1c-0.9,0.6-1.6,0.5-2.7,0.7
			c-0.9,0.1-1.8,0.4-2.6,0.4c-1.1,0.1-4.3,0.2-5.2-0.1c4.2-3.2,6.1-3.7-2.8-10.2c1.4-1,1.7-0.5,4.1-0.5c2.2,0,1.9-0.8,4.1,1.5
			C561.9,707.5,561.8,709,563.3,712.1"/>
		<path id="path16" class="st0" d="M30.1,785.2c4.5,1.5,15.3,1.1,20.8-0.1c6.8-1.5,16.1-5.5,21.1-10.5c0.8-0.8,1.1-2.5,1.6-3.6
			c0.5-1.3,1-2.3,1.7-3.5c1.6-2.7,3.3-4.8,5.6-7l-5.5-1.7c-1.1-0.4-0.6-0.4-1.8,0.3c-5,2.8-9.4,3.9-14.7,5c-4,0.8-8.8,0.8-12.8,0.6
			c-0.6,0-1.4-0.2-1.8-0.2c-1.7,0-6,4.4-7.3,6c-2.1,2.4-3.5,4.7-4.7,7.3C31.1,780,30,783.2,30.1,785.2L30.1,785.2z M4.3,839.7
			c0.6,0,2.1-0.3,2.8-0.4c1-0.2,1.9-0.4,2.9-0.6c6.3-1.6,11.7-3.6,17.3-7.6c4.2-2.9,7.8-6.4,10.9-10.5c1.4-1.8,2.6-3.7,3.7-5.7
			l2.5-5.6c-1.2-0.1-5.6,0.5-8.3,0.5c-4.9-0.1-5-0.8-4.8-3.9l-0.1-1c-5.1,4-10.8,6.7-16.9,8.5c-1.3,0.4-1.6,0.2-2.7,1.6
			c-0.7,0.9-1.4,1.8-2.1,2.7c-2.4,3.4-4.5,7.8-5.1,11.1C4,831.4,3.3,837,4.3,839.7L4.3,839.7z M33.5,807.2c2,0.8,10,0,12.9-0.5
			c9.5-1.6,18.6-6.2,25.8-13.4c5.4-5.4,5.7-7.3,9.2-12.7c-3.1-1.2-7.7,0.5-9.7-3c-3.3,1.3-9.5,8.4-24.7,10.3c-2.6,0.3-5.3,0-6.3,1
			C36.2,793.6,33.8,801.6,33.5,807.2L33.5,807.2z M66.3,694.2c2.5,2.2,9.1,5.4,11.9,6.3c2.2,0.8,3.9,1.3,5.9,1.8
			c1.8,0.4,10.4,2.2,12.1,1c5.3-3.5,5.1-4.3,12.1-6.6l6.2-1.6c-2.3-1.9-4.1-3.3-6.2-5.5c-1-1.1-1.6-2.2-3-2.8
			c-3.4-1.5-6-2.8-9.1-5.4c-1.6-1.3-1.5-1.1-3.1-1c-5.3,0.3-9.9,0.7-15.6,3.6C74.4,685.6,67.5,690.7,66.3,694.2L66.3,694.2z
			 M115.2,715.5c3,3.4,14.2,8.4,19.2,9.5c0.8,0.2,1.4,0.3,2.3,0.5c2.7,0.7,4.7,0.7,7.3,0.8c2.6,0.2,6.9,0.1,9.7-0.6
			c-2.8-2.1-5.3-2.5,0.8-8.2c4.1-3.8,5.9-3.7,9.2-5.5c-1-0.7-2-1.2-3.1-1.9c-1.7-1.2-1.5-0.8-3-0.9c-1.1-0.1-2-0.3-3.1-0.4
			c-1.1-0.1-1.8-0.4-3-0.6c-1.8-0.4-4.1-1.2-6.1-2.1c-5.2-2.3-4.4-4.1-12.2-2.2C126.1,705.5,119.6,709.1,115.2,715.5L115.2,715.5z
			 M0.2,813c1.6,0.1,3.9-0.1,5.6-0.3c7.9-0.9,15.8-3.7,22.5-8.4c3-2.1,3.6-2.3,4.2-4.7c0.9-3.6,3.1-7.7,5.8-11.1
			c-0.6-0.3-4.5-0.4-6.3-0.7c-3.4-0.6-4.3-0.4-4.1-3.7c-4.4,1-4.1,1.6-10.4,2.4c-1.4,0.2-4.5,0.3-5.2,0.7C8,790.1,3,797.8,1.4,802.7
			C0.6,805.4-0.4,811.1,0.2,813z M35.5,760.5c2.9,1.1,10.8,2.2,14.2,2.2c7.1,0.1,14.5-1.6,21.4-4.8c3.2-1.5,1-0.2,3.7-6
			c3-6.2,6.5-8.8,12-12.8c-1.5-0.9-2.1-0.1-3.7,0.6c-10.5,4.4-21.3,5-32.3,2.3c-0.9-0.2-0.9-0.4-1.8,0.1c-0.6,0.4-1.3,0.8-1.8,1.2
			c-3.8,2.7-7,6.1-9.2,10.1C37.4,754.7,35.4,759,35.5,760.5L35.5,760.5z M146.7,741.3c-1.3,0.5-3.9,1.1-5.2,1.4
			c-1.9,0.3-3.5,0.5-5.4,0.7c-3.8,0.4-6.6,0.3-10.5-0.1c-2.4-0.2-1.9-0.8-5.2,2.7c-1.5,1.6-2.9,3.4-3.9,5.2c-1.7,2.9-3.6,8-3.6,10.5
			c12.4,2.4,29.9,0.9,43.9-12.8c1-0.9,2.3-2.2,2.9-3.3c-1,0.2-5-0.7-6.5-1.1C151.3,743.9,148,743.4,146.7,741.3z M0.4,783.8
			c2,0.7,9.1,1.2,11.5,1.1c4.8-0.2,9.5-0.9,14.4-2.6c1.1-0.4,2.1-0.4,2.6-1.6c4.2-12.3,8.4-12.4,11.7-16.7c-0.8-0.1-3.5-0.7-4.6-1
			c-2.5-0.7-3.1-1.4-2.5-3.6l-0.9,0c-0.2,0-0.4,0.1-0.6,0.1c-3.1,0.6-5.7,0.8-8.9,0.9c-3.6,0.1-3-0.6-5.2,0.6
			c-1.7,0.9-3.4,1.9-5.1,3.1c-6.2,4.5-11,11.1-12.3,18.6c0,0.2-0.1,0.4-0.1,0.6c0,0,0,0.1,0,0.2c0,0,0,0.1,0,0.2L0.4,783.8
			L0.4,783.8z M75.4,756.5c2.3,1.3,10.2,2.7,12.2,2.8c8,0.6,17-0.8,24.5-5c1.1-0.6,2.6-4.3,3.5-5.7c1.6-2.4,3.1-3.9,5.1-6l-6.1-1.8
			c-4.5-1.5-1.9-0.6-6.3-0.2c-6.5,0.7-9.2,0.8-15.4-0.2c-0.9-0.1-2.5-0.7-3-0.5c-1.2,0.3-5.2,3.1-6.4,4.1
			C80.2,747,75.9,752.8,75.4,756.5L75.4,756.5z M5.4,755.1c3.3,1.7,7.8,2,11.3,2.6c3.9,0.7,7.2,0.5,11.3,0.1
			c1.1-0.1,1.8-0.3,2.9-0.4c4.1-0.4,3.4-1.3,4.4-3.2c3-6.3,6.2-9,11.6-13.3c-1.9-1.1-6.6-1.6-5.3-4.5l-2.7,0
			c-4.1,0.2-4.3-0.1-7.6-0.3c-5.1-0.3-4.2-1.7-7.8-0.2c-4.8,2.1-9.2,4.9-12.7,9.2C8.6,747.8,5.9,752.4,5.4,755.1L5.4,755.1z
			 M50.3,726.9c-3.6,3.5-4.9,6.4-6.7,10.3c3.9,2.5,14.7,4.2,19.5,4.3c5.7,0.1,14.9-1.3,19.6-3.9c-2.6-1.7-5.1-0.9-2.6-5.8
			c1.5-2.8,3.1-4.9,5.4-7.4c-0.8-0.2-1.2,0-2.2,0c-0.8,0-1.4,0-2.1,0c-5.9-0.3-11.8-1.4-17.4-3.8c-2.4-1-1.9-1-4.4,0.2
			C56.1,722.2,53,724.2,50.3,726.9L50.3,726.9z M53.7,712.6c7.2,6,20.6,9.8,29.5,9.5c5.4-0.1,4.9,0,10.1-3.5
			c-2.7-1.6-6.3-1.4-4.5-5.3c2-4.3,4.2-6.5,4.4-6.9c0.4-0.9,0.2-0.2,0.2-0.8c-5.4,0.7-15.8-2.8-20.1-4.8c-2-0.9-1.5-1-5,0.3
			C61.1,703.8,58.2,706.9,53.7,712.6L53.7,712.6z M24.9,706.7c4.4,3.4,14.3,6.5,20.2,7.2c1.4,0.2,2,0.2,3.4,0.3
			c1.2,0.1,2.6,0.3,3.6-0.1c-1.1-1.8,0.1-3.1,1.6-5c2.7-3.4,6-6.1,9.8-8.2c1.8-1,3.7-1.5,5.3-2.3c-2.8-2-3.1-1.9-5.7-2.1
			c-2-0.2-3.7-0.6-5.6-1c-2.9-0.7-5.7-1.7-8.5-2.9c-1.4-0.6-1.6-1.1-2.9-0.8c-3.6,0.9-7.6,2.1-11.3,4.5
			C31.6,698.1,25.7,703.4,24.9,706.7L24.9,706.7z M38,683.1c1.6,2.3,10.3,6.8,12.8,7.8c2.1,0.9,10.8,3.7,13.2,3.3
			c1.8-5.1,8.9-10.6,14.3-12.9c1.9-0.8,3.7-1.2,5.3-1.9c-1.4-0.5-6.4-0.9-11.4-2.8c-3.1-1.2-5.7-2.4-8.5-4.1
			c-1.3-0.7-1.7-1.3-2.9-1.3C53.2,671.6,44.4,674.9,38,683.1L38,683.1z M55.4,663.6c3.5,4.5,13.8,9.7,18.3,11.3
			c3.1,1.1,6.3,1.8,9.1,2.2c2,0.3,7.7,0.7,9.1,0.3c-2.2-2.7-3.9-4.9-5.4-7.9c-1.9-3.6-3.1-5.1,1.6-6.6c7-2.3,10.2-0.9,15.8,0.1
			c-1.7-2.3-2-1.2-5.7-1.8c-6.3-1-12.5-3.1-18.3-6.4c-2.2-1.3-2-1.6-6.1-1c-2.1,0.3-4,0.7-6.1,1.4C63.2,656.8,59.1,659.3,55.4,663.6
			L55.4,663.6z M15.5,729.2c2,1.6,9.3,3.6,11.5,4c4.5,0.9,6.7,1.1,11.5,1.1c4.9,0,4.1-0.4,5.1-2.1c4.1-7.4,8.9-10.1,15.4-13.7
			c-0.9-0.6-1.9-1.1-2.9-1.7c-1.1-0.7-1.7-0.5-2.9-0.4c-4.6,0.2-5.4-0.2-8.7-0.4c-1.2-0.1-1.8-0.3-2.9-0.5
			c-8.9-1.8-7.2-3.3-11.6-1.1c-4.3,2.1-8.3,5.4-11.1,9.3C17.3,725.6,16.7,727.3,15.5,729.2L15.5,729.2z M73.9,777.2
			c1.9,0.9,8.9,1.3,10.6,1.3c11.5-0.2,23.5-4.6,32.1-14c-1.4-0.7-4.6-0.1-5.6-1.7c-0.8-1.3,0.4-4.2,0.6-5.8
			c-7,3.1-14.7,5.1-22.2,4.6c-1-0.1-1.8-0.2-2.7-0.3c-2.9-0.2-3.3-1.5-8,4.9C75.9,769.9,74.7,773.6,73.9,777.2z M110.3,736.7
			c1.6,0.9,4.3,1.8,6,2.4c5.1,1.5,4.9,1.2,9.3,2.1c1.7,0.3,7.7,0.5,9.3,0.3c2-0.2,11-1.4,12.4-2.6c0.3-0.2,1.4-2.4,1.8-3
			c2.5-3.8,5-5.6,8.5-8c-1.1-0.8-3.6,0.1-6.2,0.4c-6.5,0.7-12.4,0.3-19.1-1.5c-2-0.5-4.2-1.3-6.2-2.2c-4.3-1.8-3-2.6-6.4,0.1
			c-2.2,1.7-4.2,3.7-5.9,5.9C112.8,731.7,110.4,735.5,110.3,736.7L110.3,736.7z M70.3,644.6c6,6.4,14.9,11.1,22.9,13.4
			c2.8,0.8,5.3,1,7.8,1.4c0-0.5-2.6-5-3.3-6.7c-1.5-3.5,0-3.8,3.2-4.8c6.6-1.9,9.3-0.2,13.3,0c-1.2-2.4-0.3-1.5-4.5-3
			c-1.7-0.6-3.8-1.6-5.6-2.6c-2.9-1.5-5.6-3.3-8.2-5.4c-1-0.8-1.9-1.9-2.9-2c-1.1-0.1-4.1,0.3-5.5,0.6c-1.9,0.3-3.7,0.7-5.7,1.5
			C77.5,638.5,73.7,640.8,70.3,644.6L70.3,644.6z M90.4,715c3.2,2,9.9,3.6,13.1,4.1c4.9,0.8,5.5,0.7,9.9,0.7c1.2,0,2.1-0.3,3.3-0.4
			c-3.4-2.9-6.6-2.7,0.2-9.4c3.1-3,7-5.5,11-6.9c1.4-0.5,2.6-0.7,3.8-1.3c-1.4-0.5-5-0.4-11.1-3.2c-0.8-0.4-1.9-1-2.7-1.4
			c-1.4-0.5-6.7,0.8-8.3,1.3C102.4,700.6,93.2,706.9,90.4,715L90.4,715z M88.7,626.7c3.2,4.2,7.2,7.9,11.5,10.8
			c2.8,1.9,5.8,3.5,8.8,4.8c1.7,0.7,2.3,1,3.1,1l-1.5-6.2c-0.6-2.3-0.8-4.4,2.5-4.5c3.8-0.1,5.3-0.1,9.2,1c1,0.3,2.1,0.8,3.1,1.1
			c-1.2-4.1-1.2-4.2-1.9-8.1c-0.2-1.1-0.9-1.3-2.1-2.1c-6.2-4.4-2.6-3.9-10.9-4.8c-3-0.3-7.2,0-10.9,1.1
			C97.2,621.4,90.4,624.2,88.7,626.7L88.7,626.7z M81.2,734.5c6.3,3.6,16.7,5.1,23.9,4.5c1-0.1,2.6-0.5,3.5-0.3c0-0.1,0-0.2,0-0.2
			c0,0-0.7-1.5,0-3.2c3.1-7.1,6.2-9.3,11.6-13.8c-0.8-0.3-4.4,0.3-5.3,0.4c-2.6,0.3-7.8,0-10.4-0.4c-7.7-1.2-6.5-2.7-10.5-0.7
			c-1.8,1-3.5,2-5.2,3.4C85.9,726.6,81.8,731.5,81.2,734.5L81.2,734.5z M108,606.7c3.9,6,8.7,12.4,15,16.3c1-3.4,3.9-2.2,6.1-2
			c1.3,0.1,2.3,0.3,3.5,0.7c0.6,0.2,1.1,0.4,1.7,0.6c0.7,0.2,1.2,0.6,1.9,0.6c-0.7-2.2-1.8-7.4-1.7-9.5c0.2-3.9,6.8-1.7,8.8-1.6
			c-1.4-1.6-2.6-2.9-3.8-4.7c-1.7-2.5-1.2-2-4-3c-5.9-2.1-12.4-2.9-18.3-1.4C115.1,603.3,110,604.9,108,606.7z M156.9,704.3
			c5,4.9,11.1,7.6,16.5,8.9c2.5,0.6,6.1,1,8.2,0.9c1.5-0.1,7-0.4,8.5-1.5c-2.4-2.2-2-2.8,0.1-5.1c1.8-1.9,3.2-2.8,5.2-4.2
			c-4.8-3.1-2.9-1.5-9.5-1.9c-5.3-0.3-9.2-1.1-14.3-3.7c-1.4-0.7-1-0.4-2.4-0.1c-0.9,0.2-1.6,0.3-2.5,0.6
			C162.9,699.5,160.1,701,156.9,704.3L156.9,704.3z M152.9,722.4c6.6,5.2,15.7,6.9,22.7,6.6c2.5-0.1,6.8-1,9.2-1.9
			c1.1-0.4,3.3-3.1,4.4-4.1c-4.3-3.1-6.3-3-2.9-7.1c-0.6-0.1-3.3,0.2-4,0.3c-1.3,0.1-2.8,0-4.3-0.1c-3.1-0.3-7.6-1.4-10.5-2.6
			c-1.1-0.5-1-0.2-2.1,0.2c-1.6,0.5-2.7,0.9-4.3,1.7C157.4,717.3,155.5,719.2,152.9,722.4L152.9,722.4z M87,665.6
			c2.6,4.5,2.9,6.4,7.2,10.9c2.3,2.4,8.3,7.3,10.9,7.6c0.5-1.8,5.4-3.8,6.9-4.3c3.6-1.3,6.7-1.2,7.5-1.5c-1.4-1.4-2.8-2.6-4.1-4.2
			c-1-1.2-2.3-3.2-3.2-4.1c-0.4-0.4-3.5-2.6-4.1-3c-3.3-2-9.2-3.3-12.6-3.2C93.6,663.8,89.2,664.2,87,665.6z M149.1,740.8
			c4.1,2,11.9,3.1,16.3,2.6c4.9-0.6,11.2-1.9,16.5-5.8l-0.2-0.5c-0.1-0.1-0.1-0.3-0.2-0.5c-0.2-0.5-0.2-0.4-0.2-0.9
			c0-0.6,0.3-1.4,0.5-2c0.6-1.8,1.5-3.3,1.5-4c-2.9,1-6.5,1.3-9.2,1.4c-6.8,0.4-13.4-2.3-13.9-2.3
			C157.8,729,149.1,737.4,149.1,740.8L149.1,740.8z M160.8,686.7c4.9,5.2,8.6,8.1,15,10.6c3,1.1,10.6,2.9,13.5,2l0-0.3
			c-0.2-2,0.5-2.6,2.8-4.8c2-1.8,3.4-2.4,5.4-3.8c-1-0.7-3.2-0.3-4.5-0.5c-6.7-0.9-12.5-2.7-18.3-6.9c-2.5-1.9-1.8-1.7-4.6-1
			C167.1,682.7,163.8,684.1,160.8,686.7z M217.9,576.3c-3.3,4.3-4.9,13.2-4.6,18.9c0.1,2.5,0.9,6.5,2.1,9.5c1.3,3.5,3,6.6,5.7,9.8
			c0.1,0,0.2-0.1,0.2-0.1l1.1-0.6c1.2-0.7,2.8-0.9,3.8-1.3c-3.8-8.6-3.8-17.5,0-25.3c0.6-1.2,0.6-1.1-0.1-2.3
			C223.7,580.5,221.7,579,217.9,576.3L217.9,576.3z M164.1,594.5c-0.7,1.3-0.7,4-0.8,5.3c-0.4,4.6,0.6,11,2.7,15.6
			c1.7,3.7,4.2,7.5,7.5,10.5c1.1,1.1,1.4,0.8,2.7,1c4.3,0.8,3.2,2,8,0.3c-1.1-1.5-2.1-3-3.1-4.6c-1.4-2.3-0.5-1.5-2.5-4.7
			c-1.9-3.2-3.1-6.3-3.9-9.4c-0.4-1.3-0.7-3.4-0.8-4.6c-0.4-4.5,0.8-5-5-7.8C166.9,595.3,164.9,594.8,164.1,594.5L164.1,594.5z
			 M193.5,610.6c0.5,1.1,0.8,2.3,1.4,3.5c0.5,1.2,1.1,2.3,1.8,3.5c1.4,2.5,3.3,5,5.4,7.2c1.2,1.2,7,6.5,8.7,6.2
			c0.4-0.1,1.3-0.5,1.8-0.6c1.4-0.4,2.4-0.5,3.6-0.8c-0.7-1.3-1.4-2.8-1.8-4c-0.6-1.4-1.3-2.9-0.7-4c1.1-1.8,6.5-2,7.7-2.1
			c-4.4-5.6-13.6-10-20.8-10.3C199.2,609.5,195,609.8,193.5,610.6L193.5,610.6z M156.1,706.6c-2.7-2.5-1.4-4,2.9-7
			c3.8-2.6,5.2-2.5,7.5-3.7c-1.9-1.6-4.1-0.7-7.7-1.4c-6.4-1.2-9.8-3.1-15.2-6.5c-1-0.7-2.6-0.3-3.8-0.1c-2.5,0.4-5.5,1.6-7.7,3
			c-1.1,0.7-1.2,0.5,1.4,3.5c4.2,4.9,9.3,8.4,15.2,10.6C150.3,705.6,155,706.8,156.1,706.6L156.1,706.6z M140.4,664.5
			c0.6,1.8,4.7,6.5,6.3,8c4.8,4.5,9.8,7.1,15.8,8.7c2.2,0.6,1.9,0.4,4-0.4c1.3-0.5,3.2-0.8,4.1-1.2c-1.6-1.9-7.3-7.3-6.6-10.1
			l0.2-0.8c-8-3.3-5.9-2.9-11.9-7c-0.9-0.6-1.9-0.3-2.9-0.2C147,661.8,142.3,662.9,140.4,664.5L140.4,664.5z M176,667
			c-1.7,0.5-6.7,0.6-9.9,3.2c6.3,9.1,12.6,14.5,23.5,16.9c0.4,0.1,3.1,0.5,3.8,0.4c-2.9-2.5-2.2-3.3,0.5-5.9c2.3-2.1,3.8-2.6,6-4
			c-0.8-0.3-1.9-0.3-2.9-0.4C188.6,676.1,182.5,673,176,667z M107.2,684.8c4.9,5.9,8.1,9.6,16.1,12.6c2,0.8,4.3,1.5,6.1,1.8l6.1,0.6
			c-1.9-2-3.3-3.3-5-5.5c-1.1-1.4-2-2.4-1.2-3.7c1.2-2,5.4-3.1,7.1-4c-4.4-1.5-5.9-1.3-10.9-4.1c-1.3-0.7-2.4-1.7-3.6-1.8
			C118.5,680.3,111.1,681.2,107.2,684.8L107.2,684.8z M149.8,604.1c-0.7,2.6,0.3,10,1.3,13.2c1.3,4.4,3.9,9.7,7.8,13.4
			c1.3-2.4,6.3-3.7,8.9-4c0.9-0.1,2.5-0.2,3.1-0.3c-9.6-10.7-7.4-16-10.1-18c-2.4-1.8-4.6-2.9-7.3-3.7
			C152.5,604.4,150.7,603.8,149.8,604.1z M177.6,588.6c-1.8,3.9-2.2,11.1-1.8,14.6c0.4,3.4,2.3,11.2,5.6,14.9
			c3.9-2.5,9.7-2.4,10.8-2.7c-4.1-6.2-5.6-12-5.8-18.5c-0.1-2.7,0.5-2.3-1.3-3.9C182.5,590.8,180.4,589.7,177.6,588.6L177.6,588.6z
			 M204.1,579.5c-1.4,2.2-2.8,8.2-3,10.2c-0.6,5.1-0.2,10.6,1.8,15.6c1.2,3.2,1,2.1,3.9,2.9c5.6,1.5,9.2,4.5,10.3,4.8
			c-0.1-0.6-1.9-3.5-2.4-4.4c-0.7-1.5-1.3-2.9-1.8-4.5c-1.4-4.5-2.1-8.8-1.7-13.3c0.6-5.7,1.6-5.1-2.5-8.6
			C207.3,581.2,205.6,579.9,204.1,579.5L204.1,579.5z M136.9,613.4c-0.1,5.8,2.4,13.2,6,18.4c0.9,1.3,4.2,5.7,5.5,5.9l2.8-1.3
			c2.1-0.9,4.6-1.6,6.9-1.6c1,0,0.8,0.1,1.7-0.3c-11.2-10.5-9.9-17.2-11.7-18.4c-0.9-0.6-2.6-1.3-3.7-1.6
			C142.3,613.8,138.3,613,136.9,613.4L136.9,613.4z M170.5,656.1c5.2,8.2,9.7,13.7,19.5,17.2c1.7,0.6,6.1,1.8,7.3,1.7
			c-3.9-3.7-5.2-4.3-1-7.4c1.8-1.3,3.3-2,5.1-2.8c-7.9-1.5-14.7-3.7-21.1-10.1c-0.9-0.9-1-1.1-1.9-1
			C176.3,653.9,172.7,654.7,170.5,656.1L170.5,656.1z M182.2,620.2c0.6,1.8,3.8,6,5.3,7.7c2.3,2.6,4.9,4.8,7.7,6.5
			c3.9,2.4,11.4,5.2,15.6,5c-0.5-2.2-3.5-4.6-2.4-6.7c-5.5-4.2-8.6-5.6-12.8-12.6c-1-1.6-0.6-3.1-6.1-2.2
			C187.5,618.2,184.2,618.9,182.2,620.2L182.2,620.2z M289,591.1c0.2,2.1,0.4,3.9,0.1,5.7c0.5,0.1,0.1,0.1,0.5,0
			c2.1-0.2,7.2-3.1,8,0.7c0.4,2.2,0,6.8-0.9,9.1c2,0.5,8.5-1.3,10.5-2.2c4.4-1.9,6.8-4,10-8c-6-4.8-17.4-7.4-24.7-6.1
			C291.4,590.6,290,590.7,289,591.1L289,591.1z M139.5,684.7c-1.3-1.5-5.1-5.3-5.5-6.9c-0.6-2.3,4.2-3.8,5.9-4.8
			c-1-0.6-2.2-0.8-3.4-1.2c-3.7-1.5-7.3-3.7-10.4-6.4c-1.7-1.5-1.6-1.2-3.3-1c-3.2,0.3-5.6,0.8-8.6,2.3c-0.9,0.4-1.3,0.4-0.9,1.2
			c1.9,4.1,8.5,10.1,12.4,12.4C130.2,682.7,135.6,684.5,139.5,684.7L139.5,684.7z M148.4,578.3c-1,3,0.5,11.7,1.8,15.4
			c0.9,2.7,2.1,5.1,3.8,7.7c1.3,2,1.4,1.5,3.3,2.4c1.1,0.5,3,1.9,4,2.1c0-2.4-0.4-2.9-0.2-7c0.1-0.9,0.3-2.4,0.5-3.5
			c0.2-1.2,0.3-2.4,1.8-2.9c-0.3-1.6-1.2-3.4-1.5-5.2c-0.6-3.4-0.2-3.2-2.7-4.9c-2.5-1.8-5.1-3-7.9-3.6L148.4,578.3z M274.7,611.2
			c5.2,5.7,3.7,5.3,6.5,9.7c8.1-4.2,16.1-13.9,14.2-23.2C288.5,598.4,279,603.5,274.7,611.2L274.7,611.2z M119.2,653.1
			c3.4,5,5,8.1,10.3,12.1c2,1.6,4.1,2.7,6.3,3.7c1.1,0.5,2.1,0.9,3.2,1.3c1.1,0.4,2.2,0.6,3.2,1c-0.1-1.4-4.2-4.9-4-7
			c0.2-2.2,4.7-3.2,6.3-4c-2.4-1.7-4.2-2.7-6.4-5c-1-1-1.9-2.1-2.8-3.2c-1.2-1.6-1.5-1.1-3-1.4C129.6,650.2,122.7,650.4,119.2,653.1
			z M230.3,580.2c1.6-0.4,1.6-1.1,3.5,0.6c1.4,1.2,2.3,2.3,3.4,3.7c0.9-1.2,1.6-2.5,2.6-3.6c2.1-2.6,1-0.4,2-3.6
			c1.2-4.1,2.5-7.4,4.9-11c1.4-2.1,1.5-1.4,0.7-3.7c-0.7-2.3-2.1-5.3-4-7.3c-6,4.5-10.2,11.7-12.1,18.6
			C230.9,575.3,230.2,579.1,230.3,580.2L230.3,580.2z M174.5,643.4c4.9,9.4,14.1,16.9,24.7,18.7l1,0c-2.2-2.4-4-3.8-0.8-6.1
			c2.1-1.5,4.6-2.4,6.3-3.1c-2.7-0.9-7.3-0.3-15.6-5.4c-1.3-0.8-2.6-1.7-3.8-2.7c-0.6-0.5-3.7-3.5-3.9-3.6
			C181.5,640.8,176.1,642.5,174.5,643.4L174.5,643.4z M231.2,608.2c1.2,2.4,1.2,3.9,3.6,7.8c1.8,3,4.2,5.6,6.9,7.9
			c0.6,0.2,0.1-0.7,3.5,0.6c1.1,0.5,2.4,1.4,3.5,1.6c0.3-4.9-0.8-9.8,5.1-7.2c0.3,0.1,0.5,0.2,0.8,0.3c0.2,0.1,0.3,0.1,0.5,0.2
			c0.5,0.2,0.3,0.1,0.5,0.1c0.9-3.9-0.3-4.3-3.2-6.6c-4.2-3.3-8.9-5.4-14-5.8C236.9,607.2,233.1,607.3,231.2,608.2L231.2,608.2z
			 M146.2,651c0.6,1.7,4.2,5.9,5.7,7.4c2.3,2.3,4.9,4.2,7.5,5.7c1.5,0.8,6,3,7.3,3.1c0.8,0.1,2.8-1,3.7-1.2c1.1-0.3,3.1-0.5,3.7-0.9
			c-1.8-2.1-4.4-5.6-5.4-7.9c-0.9-2,0.4-0.8-3-2.1c-1.4-0.5-2.6-1-4-1.7c-3.6-1.8-6.9-5.1-7.8-5.1
			C152.5,648.2,147.6,649.8,146.2,651L146.2,651z M125.1,623.2c0.2,0.8,0.2,1.4,0.3,2.3c0.8,5.9,2.7,12.4,6.6,17.3
			c4.5-2.8,12.8-2.5,17.5-0.2c-0.6-2.8-6.5-5-11-14c-1.2-2.4-0.9-3.1-6-4.6C130.8,623.4,126.8,622.3,125.1,623.2z M185.8,629.3
			c-1.9,0.6-5.1,0.8-7.4,2.4c5.2,8.2,9.8,13.8,19.8,17.3c1.3,0.5,5.8,1.8,7.4,1.6c-1-1.4-3.4-4.5-3.5-5.8c-0.1-2.2,3.5-2.8,4.9-3.6
			C197.6,638.9,193.2,636.9,185.8,629.3z M215.5,622.9c2.3,6,4.6,10.9,10.5,15.7c0.9,0.7,3.1,2.4,3.9,2.7c1.1,0.5,5-1.9,11.9-0.5
			c0-0.9-0.7-2.8-0.9-3.9c-0.4-2.4-0.2-1.5-2.6-2.6c-4.5-2.1-8.4-5-11.7-8.9c-0.9-1.1-2-3.2-3.1-3.4
			C221.7,621.8,217.3,622,215.5,622.9L215.5,622.9z M269.1,587.3c1-0.8,4.8-3.6,6-3.7c0.9-0.1,1.2,0.5,2,0.7
			c2.1-1.4,3.7-2.4,5.9-3.4c1.1-0.5,5.8-2,6-2.1c1.5-1,2.2-9.3,1.4-11.9c-3.8,0-11.4,3.7-14.8,6.2c-2.7,1.9-5.2,4.3-7.2,7
			c-0.4,0.5-1,1.3-1.4,1.8c-0.6,1-0.4,0.7,0.2,1.8C267.9,584.6,268.6,586.9,269.1,587.3L269.1,587.3z M164,570.7
			c-0.6,1.4-0.9,6.1-1,7.3c-0.1,2.4,0.3,4.8,0.7,7.5c0.1,1,1.5,6.5,2.4,7.2c0.5,0.4,3.7,1,7.4,3.8c0.9-1.1,0.4-8.3,3.5-10.2
			c-0.7-2.2-1.4-5.3-1.5-7.6c-0.1-1.4,0.2-1.4-1.3-2.7C171.6,573.7,166.8,570.9,164,570.7z M209.1,654.6c-2.5,0.3-6.6,1.5-9.1,3.8
			c6.4,8.2,14.1,11.7,23.3,12.6c4.5,0.5,4-0.2,8-2.9c-1.7-1.4-3.6-2.4-5.4-4c-1.8-1.6-2.5-1.1-5.7-2.4
			C215.7,660,213,658.1,209.1,654.6L209.1,654.6z M243.4,579.8c2.4,2.5,3,3.3,4.8,6c0.8-1,3.6-3.9,4.1-4.7l2.3-4.7
			c2.3-4,4.2-6,7.5-9.4c-0.5-2.3-1.4-7.3-3.8-9.5c-4.1,2.7-7.8,6.6-10.4,10.7C245.7,571.6,243.6,576.5,243.4,579.8L243.4,579.8z
			 M150.1,639.4c4,5.7,6.6,9,12.9,12.2c7.2,3.8,7.3,1.9,10.7,0.9c1.3-0.4,2.5-0.5,3.7-0.9c-1-1.1-1.8-2.3-2.7-3.6
			c-1-1.6-1-2.3-2.7-3.2c-7.1-3.7-8.3-7.9-10.8-8.1C158,636.5,153,637.3,150.1,639.4L150.1,639.4z M179.3,564.4
			c-0.9,1.4-1.5,6.1-1.6,7.4c-0.2,3.6-0.4,3.3,0,7.3c0.1,1.4,0.3,2.4,0.6,3.7c1.7,7.3,1.3,2.4,8.2,8.7c0.3-0.5,0.3-1.3,0.4-1.9
			c0.2-1.4,1.6-6.6,2.3-7.6c1.3-1.9,1,0.6,0.6-3.7l-0.1-5.8c0-1.5-0.8-2.1-2.6-3.6C184,566.2,182.2,565.9,179.3,564.4L179.3,564.4z
			 M187.9,738.7c-3.4,5.6-3.4,18,1.7,22.7c3.9-3.1,6.8-7.4,8.4-11.5c1.4-3.5,2.4-9.3,1.7-11.9C198.7,737.9,194.5,739.5,187.9,738.7
			L187.9,738.7z M99.3,650.7c0.1,1.5,3,6.3,4.1,8c2.1,3,4.5,5.5,7.5,7.8c2.6-3.4,9.3-3.8,11.9-4.4c-1.8-2.5-3.3-4.3-4.9-6.9
			c-0.9-1.6-0.7-2.1-1.6-3.4c-1-1.5-1.6-1.3-3.2-1.7C109.2,648.8,102.7,648.8,99.3,650.7z M144.9,673.8c-2.7,0.7-6.1,1.3-8.7,3.6
			l4.1,5c2.7,3,8.6,6.6,11.8,7.9c4.5,1.8,7.9,2.3,11.8,2.5c-7.5-7.2-6.1-5.9-2.2-9.6C155.2,681.6,150.9,678.9,144.9,673.8z
			 M191,583.2c-3.4,5.6-3.4,19.8,0.4,26.4c1.4-1.7,3.4-1.7,4.9-1.9c1.9-0.3,3.3-0.2,5-0.3c-2.5-6.5-2.7-10.5-2.4-16.4
			c0.1-1.7,0.7-1.8-1-3.4C196,585.8,193.1,583.5,191,583.2L191,583.2z M195.1,559.6c-2.3,4.2-3.3,10.8-3.4,14.3
			c0,0.8,0.2,6.4,0.7,7.2c0.2,0.4,2.7,1.6,3.4,2.1c1.4,0.9,2.4,1.8,3.7,3c0.5-0.9,1-3.3,1.4-4.6c0.9-2.4,0.7-2.8,3-4.4
			c-0.3-1.6,0.2-5.4,0.5-7.3c0.2-1.1,0.5-1.4-0.1-2.4C202.2,564.1,198.3,561,195.1,559.6L195.1,559.6z M255.1,580.1
			c2.2,1.7,2.6,3.7,4,5.1c6.1-5.8,5-2.5,6.8-5.2c1.7-2.6,4.2-5.1,6.5-7.1c1.6-1.3,3.3-2.3,4.8-3.5c-0.2-2.1,0-5.5-1.4-8
			c-4.5,2.1-7.5,3.1-11.9,6.9C261,570.7,255.8,576.9,255.1,580.1L255.1,580.1z M213.1,642.5c-2.4,0.1-6.2,0.4-8.9,2.3
			c3.9,6.1,7.1,10.4,14.1,13.9c1.8,0.9,4,1.5,5.5,2.2c2.5-3.5,6.4-5.1,9.5-6.5C222.7,651.4,221.2,650.5,213.1,642.5L213.1,642.5z
			 M264.3,607.7c-0.2,3.9-0.5,7.5,0.7,11.9c1,3.8,3.2,8.7,6.3,12.1l8.7-7.8c-3-6.2-5.6-12-13.1-15.4c-0.4-0.2-0.8-0.3-1.2-0.5
			C264.9,607.6,264.9,607.6,264.3,607.7L264.3,607.7z M191.3,724.1c-5.9,4.5-5.8,7.2-7.9,11.6c1.5,0.9,5.8,1,7.2,1.1
			c0.9,0,2.5,0,3.5-0.1c6.1-0.9,12.3-2.4,17.6-7.5c-0.2-0.5-0.6-1.6-0.8-1.9C206.6,728.9,195.8,726.7,191.3,724.1L191.3,724.1z
			 M135.1,588.5c-0.1,1.1,0.2,2,0.4,3.1c0.9,7.3,6.1,16.5,12.3,21.3l-0.2-3.4c-1-9.6,2.5-7.4,4.2-7.5c-0.1-0.7-2.3-4.5-2.8-5.7
			c-0.5-1.2-1.5-5.2-2.2-5.7c-1.1-0.8-4.8-1.8-5.8-2C139.4,588.3,136.5,588.1,135.1,588.5L135.1,588.5z M211.6,557.3
			c-2.7,3.2-4.7,10.4-5.3,13.5c-0.2,1.3-0.6,6.1-0.4,6.8c0.2,0.6,2.3,1.6,3,2.1c1.2,0.9,2.4,2,3.5,3.2c0.4-0.6,2.3-6.5,3.7-8.1
			c0.9-1,0.9-0.3,1-1.6c0.3-2.4,0.5-4.2,1.4-6.7c0.6-1.7,0.4-1.7-0.8-3.4C216.6,561.3,213.7,558,211.6,557.3L211.6,557.3z
			 M191.4,698c3.9,4.2,14.6,7.2,20.4,6.9c0.9-0.1,2.3-0.1,3.4-0.3c1.4-0.2,2-1.2,3.2-2.5c-1.1-0.4-4.4-0.7-5.4-1.6
			c-1.9-1.7,0.2-3.6,0.6-5.6c-1.6,0.5-8.8-1.4-11.1-2.2c-1.4-0.5-2-1.1-2.7-0.9C197.3,692.3,193.2,695.9,191.4,698L191.4,698z
			 M220,715.3c-4.4,3.8-6,7.9-6.8,12c2.3,1.1,9.9-0.2,12.5-0.9c4.4-1.3,9-4.1,12.6-8.1c-1.4-0.5-3-0.6-4.6-1.1c-1.6-0.5-3-1-4.6-1.8
			c-1.1-0.5-1.3-0.4-2.3-0.2C225.4,715.5,221.3,715.6,220,715.3L220,715.3z M219.3,574.6c6.4,4.5,4.8,4.1,8.6,9
			c0.2-0.7,0.1-1.6,0.1-2.3c0-1,0-1.6,0.1-2.6c0.1-1.4,0.5-3.5,1-5c0.8-3,2.2-7.1,4.2-10c-2.2-3.5-2.7-5-6.3-8.1
			c-1.9,1.5-4.8,7.4-5.6,9.5C220.4,567.8,219.1,572.5,219.3,574.6z M190.8,710.2c2.9,2.9,10,5.5,13,6.2c3.4,0.8,6.6,0.8,9.9,0.4
			c2-0.2,1.6,0.1,3.3-1.7c-1.2-0.8-4.4-0.2-4.5-2.8c0-1.8,1.5-3.7,1.9-5.5c-5.3,0-9,0.3-14.7-1.8c-1.6-0.6-1.5-1-3,0
			C194.4,706.4,192.5,708.1,190.8,710.2L190.8,710.2z M112.4,634.9c0,4,3.2,12.5,6.1,16.1c5.7-3.6,13-2.3,14.3-2.6
			c-0.6-0.9-1-2.1-1.7-3c-0.8-1.1-1.5-2-2.2-3.1c-2.5-4-1.4-4-4.2-5.3C120.4,634.9,116,634.4,112.4,634.9L112.4,634.9z M204.5,666.1
			c-2.3,0.5-6.6,2.4-8.5,4.6c2.6,3.1,6.4,5.7,9.7,7.4c4.8,2.4,7.6,2.3,9.3,3.1c1.4-1.5,2.2-2.9,3.9-4.5c1.5-1.4,3.1-2.2,4.5-3.3
			C217.8,673,210.7,670.9,204.5,666.1L204.5,666.1z M193.6,684.9c3.5,3.3,8.6,5.7,12.5,6.7c1.7,0.5,8,2,9.2,0.7c1-1.1,1.8-2.1,3-3.2
			c-3.1-1.3-7-0.3-4.3-5.9l-5.1-1.4c-7.2-2.4-4.9-4.1-10.1-1.2C196.8,681.8,195.3,683,193.6,684.9L193.6,684.9z M229.6,644.3
			c3.4,7.3,9.1,13.6,16.6,16.6l0.4-3.8c0.9-8,2.2-4.4-0.1-7.6c-4.1-5.9-2-6-5.3-6.5C237.9,642.4,232.7,642.3,229.6,644.3
			L229.6,644.3z M260.4,586.9c-4.4,4.3-6.6,8.9-7.8,13.8c-0.5,2.2-1.8,8.6,0.2,10c1.2,0.9,2.3,1.8,3.5,2.9l1.3-1.1
			c0.4-10.5,2.2-15.1,9.6-23.4c-0.4-1.6-1-3.3-2-4.9c-0.7-1.1-1-0.4-2.1,0.5C262.1,585.2,261.2,586.1,260.4,586.9z M278,586.4
			c0.1,0.5,1.1,3.7,1.2,4c1.7-0.8,3-1.5,4.7-2.1c1.8-0.7,3.2-1.5,4.5,0.6c0.9,0,2.5-0.4,3.4-0.5c2.9-0.4,7.6-0.5,10.5,0.1
			c2.1-2.5,2.7-6,3.5-7.8c-1.3-0.7-5.5-0.9-7.1-0.9c-2.1,0-4.6,0.2-6.9,0.6C287.7,581.2,281.4,583.4,278,586.4L278,586.4z
			 M230.4,611.8c-0.6-1-1.5-3.4-1.2-4.2c0.5-1.9,2.7-1.7,4-2.2c0.1-4.1-1-6,0.4-11.7c1.8-7.6,3.4-5.9,1.3-8.6
			c-0.9-1.2-1.8-2.1-2.9-3c-1.6,1.1-4,6.1-4.6,7.8c-1.3,3.5-2.3,8.4-1.8,11.9c0.5,3.4,0.5,4.5,1.8,8
			C228.1,611.9,228.2,612.7,230.4,611.8L230.4,611.8z M235.4,605.1c0.8,0.1,2.4,0,3.5,0.1l3.1,0.4c0.4,0,0.2,0,0.5,0
			c0.1-0.7-0.1-3.1,0.2-6c0.3-2.8,1.4-6.3,2.6-9c0.4-0.9,1.5-2.2,1.2-3c-0.4-1.5-3.1-5-4.6-6.1c-4.4,5-6.9,11.5-7.2,17.7
			C234.8,600.5,235,603.8,235.4,605.1L235.4,605.1z M267.6,606.3c1.7,1.2,3.4,1.9,5.4,3.4c3.3-4.5,5.6-7.3,10.5-10.1
			c3.3-1.9,3.3-0.7,3.6-4.1c0.1-1.1-0.1-4.5-0.8-5.8c-1.8,0.8-3.4,1.2-5.3,2.2c-1.9,1-3.8,2.2-5.5,3.7
			C271.3,599,269.8,602,267.6,606.3z M186.8,718.7c3.7,3.6,10.5,5.7,15.3,6.5c1.1,0.2,1.9,0.2,3,0.2c2.3,0.1,4.1,0,6.3-0.4
			c0.4-0.7,0.7-2.1,1.1-3.1c0.4-1,1.3-2.1,1.4-3.1c-6.1,1-14.5-0.8-20.3-4.2c-1.8-1.1-1.6-0.9-3.4,0.5
			C188.9,716.3,187.7,717.4,186.8,718.7L186.8,718.7z M161,631.2c1.6,2.4,2.8,4.2,4.9,6.4c1.1,1.1,5.6,5.5,6.7,4.7
			c3.6-2.7,4.6-1.9,8-3.2c-1.2-1.7-2.2-3-3.2-4.8c-1.2-2-1.9-3,0-4.7C172.6,628,165,628.1,161,631.2L161,631.2z M226.1,661.4
			c2,2.6,6.9,5.4,9.6,6.6c3.7,1.7,6.7,2.1,9.8,2.7c0.7-2.2,0.1-5.2,0.7-7.3c-2-1.5-4.7-1.5-10.2-6.5c-1.2-1.1-2.1-0.6-5,0.8
			C229.3,658.6,227.6,659.8,226.1,661.4z M242.9,626.1c-0.9,2.6-0.3,8.7,0.4,11.6c0.9,3.5,3,8.5,5.8,11.8l6.1-4.9l-0.7-1.3
			c-2.5-3.7-4.2-7.8-5.1-12.1c-0.3-1.3,0.1-1.7-1.3-2.6C246.7,627.6,244.3,626.4,242.9,626.1L242.9,626.1z M217.1,631.8
			c-1.8,0.6-4.6,0.3-6.7,1.9c0.8,3.3,5.8,9.3,8.7,11.7c1.7,1.4,9.4,6.5,12.2,6.1c-1-1.4-1.9-2.9-2.7-4.4c-1.9-3.6-0.9-2.9-0.7-4.5
			C218.5,635.7,220,634.6,217.1,631.8L217.1,631.8z M226.3,675.2c6,4.8,13.3,6.7,18.6,6.9c0.4-1.1,0.7-7.9,0.7-9.4
			c-2.4,0-7.2-1.4-9.7-2.4c-2.6-1.1-2.1-1.3-4.9,0.6C229,672.2,227.8,673.5,226.3,675.2z M223.1,615.8c1.7,3.7,3.8,7.1,7,10.3
			c2.5,2.5,7.1,5.8,10.1,6.6c0.2-0.6-0.1-2.7,0.1-4.7c0.4-3,0.4-1.8-2.2-4.4c-3.6-3.5-4.5-5.9-6.9-9.5
			C229.1,614.1,225.7,614.3,223.1,615.8L223.1,615.8z M261.9,613.7c0.5-1.6-0.4-6.3,1.1-7.8c1.1-1,1.6-0.5,2.6-0.4
			c2.7-4.6,3.1-6.7,7.7-10.9c1.3-1.2,2.7-2,3.9-3.1c-0.7-1.6-0.7-3.4-2-5.6c-9.5,4.9-15.2,14.8-15.5,25
			C259.7,613.1,259.6,612.6,261.9,613.7L261.9,613.7z M244.7,606.3l4.8,2.2c0.4-2.2-0.4-4.8,1.6-10.8c1.4-4.4,3.1-6.7,6.2-10.8
			c-0.6-1.4-1.7-3.6-3.1-4.7c-6.2,5.7-9.7,13.1-9.7,21C244.5,604.4,244.7,605.2,244.7,606.3z M133.3,644.6
			c2.4,5.3,6.4,10.3,11.6,13.4c2.1,1.3,2.8,1.9,4.9,1.3c-1.7-1.8-6-6.8-5.8-8.6c0.4-2.5,6.7-3.7,8.1-4.4c-2.5-2-6.9-2.8-9.4-3.1
			C140.6,642.9,136.1,643,133.3,644.6L133.3,644.6z M227,687.2c5.4,4.2,11.8,6.2,16.7,6.7c0.3-0.8,0.2-1.3,0.3-2.2
			c0.1-0.9,0.3-1.3,0.3-2.4c0.1-1.8,0.4-3.1,0.4-4.9c-2.7-0.1-5.9-0.6-9-1.6c-2.6-0.8-2-1.4-4.6,0.4
			C229.8,684,227.6,685.9,227,687.2L227,687.2z M225.9,698.8c2,2.3,8.6,5.2,11.8,6c1.5,0.4,2.8,0.5,4.1,0.9c0.6-1,1.7-8.8,1.6-9.6
			c-2.9-0.5-5.4-0.8-8.7-2.1c-1.9-0.7-1.7-1.1-4.4,0.8C228.5,695.9,227.2,697.2,225.9,698.8L225.9,698.8z M258.2,614.6
			c-2,5,1.7,19.3,6,22.9l5.5-4.5c-2.6-3-4.9-7.1-5.9-10.5C262,617.1,263.6,615.9,258.2,614.6L258.2,614.6z M251.3,620.5
			c-1.6,6.1,1.3,17.5,5.8,22.7l5.4-4.2c-2.5-3.1-4.5-7.3-5.5-10.6c-0.6-2.1-0.7-3.2-1.1-5.2C255.7,621.7,252.6,620.6,251.3,620.5
			L251.3,620.5z M223.7,709.5c2.6,2.9,10.2,5.9,14.6,6.6l1.1,0c0.6-1.5,2-7.2,2-8.4c-2.3-0.2-6.1-1.2-8.8-2.4
			c-2.5-1.1-1.9-1.7-4.4,0C226.5,706.4,225,707.8,223.7,709.5L223.7,709.5z M214.4,698.8c2.7,1.1,6.9,1.5,9.7,1.5
			c-0.9-2.1-0.3-2.5,1.5-4.5c1.6-1.7,3-2.6,4.8-3.8c-4.5-3.3-3.7-2.2-6.8-2.4c-0.9-0.1-1.6-0.4-2.5,0
			C218.3,691.2,215,696.2,214.4,698.8L214.4,698.8z M224,675.4c-5.2,3.3-6.5,5.4-8.8,10.4c1.9,1,8,1.8,9.3,1.5l0.3-1
			c0.7-1.9,4.4-4.5,5.9-5.7C228.5,679.2,225.2,678,224,675.4L224,675.4z M214.6,712.1c0.9,0.6,1.6,0.5,2.7,0.7
			c0.9,0.1,1.8,0.4,2.6,0.4c1.1,0.1,4.3,0.2,5.2-0.1c-4.2-3.2-6.1-3.7,2.8-10.2c-1.4-1-1.7-0.5-4.1-0.5c-2.2,0-1.9-0.8-4.1,1.5
			C216,707.5,216.2,709,214.6,712.1"/>
		<g id="g18">
			<path id="path20" class="st0" d="M294.7,672.2c-1.2,0-2.7,0.1-4.4,0.3c-1.7,0.2-3.5,0.4-5.4,0.8c-1.9,0.4-3.7,0.8-5.5,1.2
				c-1.8,0.5-3.4,1-4.8,1.6l3.9,22h3.9c1.7-1,3.7-2.1,5.8-3.2c2.2-1.1,4.4-2.2,6.7-3.1c2.3-1,4.5-1.7,6.7-2.4c2.2-0.6,4.2-0.9,6-0.9
				c1.5,0,2.8,0.3,3.7,1c1,0.7,1.7,1.8,2.1,3.4c0.4,1.5,0.7,3.3,1,5.5c0.2,2.2,0.5,4.8,0.6,7.8c0.1,3,0.3,6.3,0.3,9.9
				c0.1,3.7,0.1,7.6,0.1,11.9v98.5c0,1.4-0.4,2.6-1.2,3.5c-0.8,1-1.8,1.6-3.1,1.9l-13.7,3.8v6.2h62.5v-6.2l-12.4-3.8
				c-1.3-0.4-2.3-1-3.1-2c-0.8-0.9-1.2-2.1-1.2-3.4v-99.2c0-8.6-1.3-16.4-3.8-23.2c-2.6-6.8-6-12.6-10.5-17.4
				c-4.4-4.7-9.6-8.3-15.5-10.8C307.4,673.4,301.2,672.2,294.7,672.2"/>
			<path id="path22" class="st0" d="M373.9,650.2l12.5,3.9c1.3,0.4,2.3,1,3.1,2c0.8,0.9,1.2,2.1,1.2,3.5v100.3
				c0,1.4-0.4,2.6-1.2,3.5c-0.8,0.9-1.8,1.6-3.1,1.9l-12.5,3.8v6.2h62c4.4,0,9.1-0.4,14.3-1.2c5.1-0.8,10.2-2.2,15.1-4.1
				c5-1.9,9.8-4.6,14.4-7.8c4.6-3.3,8.6-7.3,12.2-12.2c3.5-4.9,6.3-10.7,8.4-17.3c2.1-6.7,3.1-14.4,3.1-23.1c0-11.2-1.8-21-5.3-29.1
				c-3.5-8.2-8.4-15-14.5-20.3c-6.1-5.4-13.4-9.4-21.6-12c-8.3-2.7-17.1-4-26.5-4h-61.5L373.9,650.2z M436.2,655.3
				c6.3,0,11.9,1.1,16.5,3.4c4.7,2.3,8.5,5.6,11.6,10c3.1,4.4,5.4,9.7,6.9,16.1c1.5,6.3,2.3,13.6,2.3,21.6c0,8.9-1,16.9-3,24
				c-2,7.1-4.9,13.2-8.6,18.2c-3.7,5-8.1,8.8-13.3,11.5c-5.2,2.7-11,4-17.2,4h-13.2V655.3L436.2,655.3z"/>
		</g>
	</g>
</g>
</svg>
