<svg width="75" height="75" viewBox="0 0 75 75" fill="none" xmlns="http://www.w3.org/2000/svg">
<path fill-rule="evenodd" clip-rule="evenodd" d="M38 11C44.3346 11 50.2645 12.0954 55.3419 14.0031C50.8738 5.38242 44.5329 0 37.5 0C30.3337 0 23.8859 5.58855 19.4058 14.4971C24.7493 12.2858 31.1372 11 38 11Z" fill="#FF0000"/>
<path fill-rule="evenodd" clip-rule="evenodd" d="M37.5942 63.4971C43.9287 63.4971 49.8587 62.4017 54.9361 60.494C50.4679 69.1147 44.1271 74.4971 37.0942 74.4971C29.9278 74.4971 23.4801 68.9086 19 60C24.3435 62.2114 30.7314 63.4971 37.5942 63.4971Z" fill="#FF0000"/>
<path fill-rule="evenodd" clip-rule="evenodd" d="M63.4971 38C63.4971 44.3346 62.4017 50.2645 60.494 55.3419C69.1147 50.8738 74.4971 44.533 74.4971 37.5C74.4971 30.3337 68.9086 23.8859 60 19.4058C62.2114 24.7493 63.4971 31.1372 63.4971 38Z" fill="black"/>
<path fill-rule="evenodd" clip-rule="evenodd" d="M11 37.5942C11 43.9287 12.0954 49.8587 14.0031 54.9361C5.38242 50.4679 8.09008e-07 44.1271 1.11643e-06 37.0942C1.42968e-06 29.9278 5.58855 23.4801 14.4971 19C12.2858 24.3434 11 30.7314 11 37.5942Z" fill="black"/>
<path d="M15 35L35.5 14.5C35.5 14.5 22.903 12.597 18 17.5C13.097 22.403 15 35 15 35Z" fill="black"/>
<path d="M15 35L35.5 14.5C35.5 14.5 22.903 12.597 18 17.5C13.097 22.403 15 35 15 35Z" fill="black"/>
<path d="M59.5 39L39 59.5C39 59.5 51.597 61.403 56.5 56.5C61.403 51.597 59.5 39 59.5 39Z" fill="black"/>
<path d="M59.5 39L39 59.5C39 59.5 51.597 61.403 56.5 56.5C61.403 51.597 59.5 39 59.5 39Z" fill="black"/>
<path d="M59.8634 34.8634L39.3634 14.3634C39.3634 14.3634 51.9605 12.4605 56.8634 17.3634C61.7664 22.2664 59.8634 34.8634 59.8634 34.8634Z" fill="#FF0000"/>
<path d="M59.8634 34.8634L39.3634 14.3634C39.3634 14.3634 51.9605 12.4605 56.8634 17.3634C61.7664 22.2664 59.8634 34.8634 59.8634 34.8634Z" fill="#FF0000"/>
<path d="M15.3634 38.8634L35.8634 59.3634C35.8634 59.3634 23.2664 61.2664 18.3634 56.3634C13.4605 51.4605 15.3634 38.8634 15.3634 38.8634Z" fill="#FF0000"/>
<path d="M15.3634 38.8634L35.8634 59.3634C35.8634 59.3634 23.2664 61.2664 18.3634 56.3634C13.4605 51.4605 15.3634 38.8634 15.3634 38.8634Z" fill="#FF0000"/>
</svg>
